<svg xmlns="http://www.w3.org/2000/svg" viewBox="0 0 860 491.43" xmlns:v="https://vecta.io/nano"><path d="M803.48 78.93c12.17 10.27 22.66 22.2 30.4 36.33 20.78 37.9 25.56 82.6 26.08 124.67.7 56.67-7.4 114-34.83 165.06-15.84 29.5-45 44.2-77.15 54.68-61.16 19.93-127.17 27.55-191.57 29.8Q452.27 493.1 348 490c-61.52-1.8-125.08-2.27-185.8-12.35C117.06 470.18 69 455.32 41 418.7 15.7 385.52 7 341.15 2.67 301.34c-5.3-48.6-2.95-99.85 9.1-147.47C23.5 107.43 50.9 64 98 42.28c43-19.82 91.62-28.1 138.73-33.46C290.17 2.75 344.1 1.35 397.9.9c112.88-1 226.7-7.44 332.7 36.75 25.7 10.72 51.8 23.53 72.87 41.3z"/></svg>