<svg xmlns="http://www.w3.org/2000/svg" viewBox="0 0 400 115" fill="#ebed78" xmlns:v="https://vecta.io/nano"><path d="M10.5 3.5a6.27 6.27 0 0 1 1.57 4.32 7.4 7.4 0 0 1-1.81 4.28c-1.07 1.33-2.5 2.55-4 2.64a5.84 5.84 0 0 1-4.36-2.28A7.32 7.32 0 0 1 0 7.85a6.59 6.59 0 0 1 1.8-4.57 6 6 0 0 1 4.45-2A6.09 6.09 0 0 1 10.5 3.5zm28.4-1.8a6.38 6.38 0 0 1 2.2 4 5.78 5.78 0 0 1-1.63 4.39 5.39 5.39 0 0 1-4.3 1.77 7.12 7.12 0 0 1-4-2.45C30 8.17 29.05 6.84 29 5.5a5.45 5.45 0 0 1 2.11-3.73A6.16 6.16 0 0 1 35 0a6 6 0 0 1 3.9 1.71zm59.34 4.24c1 1.18 1.05 3 .9 4.64a6.7 6.7 0 0 1-1.55 4.1A5.28 5.28 0 0 1 93.71 16a7.11 7.11 0 0 1-4.11-1.53 5.65 5.65 0 0 1-2.49-3.83c-.06-1.47 1-3 2.23-4.18a7.58 7.58 0 0 1 4.47-2.14 5.27 5.27 0 0 1 4.43 1.62zM68.66 3.27a6.28 6.28 0 0 1 1.49 4.51 6.84 6.84 0 0 1-1.61 4.53 6.26 6.26 0 0 1-4.44 1.86 6.13 6.13 0 0 1-4.51-1.75 6 6 0 0 1-1.5-4.48 6.64 6.64 0 0 1 2-4.15 6.79 6.79 0 0 1 4.17-1.93 5.65 5.65 0 0 1 4.4 1.41zm61.9.23a6.36 6.36 0 0 1 1.57 4.32 7.47 7.47 0 0 1-1.81 4.28c-1.07 1.33-2.5 2.55-4.05 2.64a5.84 5.84 0 0 1-4.28-2.28 7.32 7.32 0 0 1-1.9-4.61 6.68 6.68 0 0 1 1.8-4.57 5.53 5.53 0 0 1 8.71.22zM159 6a6.29 6.29 0 0 1 2.2 3.95 5.81 5.81 0 0 1-1.62 4.39 5.43 5.43 0 0 1-4.31 1.77 7.06 7.06 0 0 1-4-2.45c-1.16-1.2-2.15-2.53-2.16-3.87a5.45 5.45 0 0 1 2.1-3.79 6.18 6.18 0 0 1 3.87-1.77A6 6 0 0 1 159 6zm59.3-2.2c.95 1.18 1 3 .9 4.64a6.66 6.66 0 0 1-1.54 4.09 5.28 5.28 0 0 1-3.87 1.37 7.12 7.12 0 0 1-4.11-1.53 5.66 5.66 0 0 1-2.49-3.84c-.07-1.47.95-3 2.22-4.18a7.6 7.6 0 0 1 4.48-2.14 5.26 5.26 0 0 1 4.42 1.59zm-29.58 1.6a6.27 6.27 0 0 1 1.5 4.51 6.85 6.85 0 0 1-1.62 4.52 6.42 6.42 0 0 1-8.95.11 5.89 5.89 0 0 1-1.49-4.48 6.59 6.59 0 0 1 2-4.15A6.72 6.72 0 0 1 184.32 4a5.6 5.6 0 0 1 4.4 1.41zm60.6-1.9a6.27 6.27 0 0 1 1.57 4.32 7.4 7.4 0 0 1-1.81 4.28c-1.07 1.33-2.5 2.55-4 2.64a5.84 5.84 0 0 1-4.32-2.28 7.32 7.32 0 0 1-1.9-4.61 6.59 6.59 0 0 1 1.8-4.57 5.52 5.52 0 0 1 8.7.22zm28.4-1.8a6.38 6.38 0 0 1 2.2 4 5.78 5.78 0 0 1-1.63 4.39 5.39 5.39 0 0 1-4.3 1.77 7.12 7.12 0 0 1-4-2.45c-1.15-1.2-2.14-2.53-2.15-3.87A5.45 5.45 0 0 1 270 1.77 6.16 6.16 0 0 1 273.84 0a6 6 0 0 1 3.88 1.71zm59.34 4.24c.95 1.18 1.05 3 .9 4.64a6.7 6.7 0 0 1-1.55 4.1 5.28 5.28 0 0 1-3.87 1.32 7.11 7.11 0 0 1-4.11-1.53 5.65 5.65 0 0 1-2.49-3.83c-.06-1.47 1-3 2.23-4.18a7.58 7.58 0 0 1 4.47-2.14 5.27 5.27 0 0 1 4.43 1.62zm-29.58-2.67A6.28 6.28 0 0 1 309 7.78a6.84 6.84 0 0 1-1.61 4.53 6.26 6.26 0 0 1-4.44 1.86 6.13 6.13 0 0 1-4.51-1.75 6 6 0 0 1-1.5-4.48 6.64 6.64 0 0 1 2-4.15 6.79 6.79 0 0 1 4.17-1.93 5.65 5.65 0 0 1 4.37 1.41zm61.92.23a6.36 6.36 0 0 1 1.6 4.32 7.47 7.47 0 0 1-1.81 4.28c-1.07 1.33-2.5 2.55-4 2.64a5.84 5.84 0 0 1-4.32-2.28 7.32 7.32 0 0 1-1.9-4.61 6.68 6.68 0 0 1 1.8-4.57 5.53 5.53 0 0 1 8.71.22zM397.78 6A6.29 6.29 0 0 1 400 9.93a5.81 5.81 0 0 1-1.62 4.39 5.43 5.43 0 0 1-4.31 1.77 7.06 7.06 0 0 1-4-2.45c-1.16-1.2-2.15-2.53-2.16-3.87A5.45 5.45 0 0 1 390 6a6.18 6.18 0 0 1 3.87-1.77A6 6 0 0 1 397.78 6zM39.54 35.6a6.32 6.32 0 0 1 1.57 4.32 7.44 7.44 0 0 1-1.81 4.28c-1.07 1.33-2.5 2.55-4 2.64a5.81 5.81 0 0 1-4.32-2.28A7.19 7.19 0 0 1 29 40a6.64 6.64 0 0 1 1.79-4.58 6.07 6.07 0 0 1 4.46-2 6 6 0 0 1 4.29 2.18zm28.4-1.78a6.3 6.3 0 0 1 2.19 3.94 5.75 5.75 0 0 1-1.62 4.4 5.4 5.4 0 0 1-4.3 1.76 7.09 7.09 0 0 1-4-2.45c-1.16-1.2-2.14-2.53-2.16-3.87a5.45 5.45 0 0 1 2.11-3.72 6.17 6.17 0 0 1 3.87-1.78 6 6 0 0 1 3.91 1.72zm180.7 4.23c1 1.18 1.05 3 .9 4.64a6.66 6.66 0 0 1-1.53 4.09 5.28 5.28 0 0 1-3.87 1.37 7.12 7.12 0 0 1-4.13-1.53 5.66 5.66 0 0 1-2.49-3.84 5.93 5.93 0 0 1 2.22-4.18 7.63 7.63 0 0 1 4.48-2.14 5.26 5.26 0 0 1 4.43 1.59zm-27.44-2.67a6.22 6.22 0 0 1 1.5 4.5 6.83 6.83 0 0 1-1.62 4.53 6.23 6.23 0 0 1-4.43 1.87 6.13 6.13 0 0 1-4.51-1.76 5.88 5.88 0 0 1-1.5-4.48 6.59 6.59 0 0 1 2-4.15A6.82 6.82 0 0 1 216.8 34a5.63 5.63 0 0 1 4.39 1.38zm-61.6.22a6.33 6.33 0 0 1 1.58 4.32 7.39 7.39 0 0 1-1.82 4.28c-1.06 1.33-2.5 2.55-4 2.64a5.84 5.84 0 0 1-4.36-2.28 7.29 7.29 0 0 1-1.9-4.6 6.61 6.61 0 0 1 1.8-4.58 5.54 5.54 0 0 1 8.7.22zm31.6-1.83a6.36 6.36 0 0 1 2.2 3.94 5.8 5.8 0 0 1-1.63 4.4 5.38 5.38 0 0 1-4.3 1.76 7 7 0 0 1-4-2.45c-1.15-1.2-2.14-2.53-2.15-3.87a5.41 5.41 0 0 1 2.11-3.72 6.12 6.12 0 0 1 3.86-1.78 5.91 5.91 0 0 1 3.91 1.72zm-61.97 2.13c1 1.18 1.05 3 .9 4.64a6.64 6.64 0 0 1-1.54 4.09 5.24 5.24 0 0 1-3.87 1.36 7.12 7.12 0 0 1-4.11-1.53 5.64 5.64 0 0 1-2.49-3.83 5.91 5.91 0 0 1 2.22-4.18 7.63 7.63 0 0 1 4.48-2.14 5.23 5.23 0 0 1 4.42 1.59zm-29.58 1.6a6.29 6.29 0 0 1 1.5 4.51 6.84 6.84 0 0 1-1.62 4.53 6.45 6.45 0 0 1-9 .11 5.92 5.92 0 0 1-1.49-4.48 6.59 6.59 0 0 1 2-4.15 6.74 6.74 0 0 1 4.17-1.93 5.62 5.62 0 0 1 4.44 1.41zm178.7-1.9a6.32 6.32 0 0 1 1.57 4.32 7.44 7.44 0 0 1-1.81 4.28c-1.07 1.33-2.5 2.55-4 2.64a5.81 5.81 0 0 1-4.32-2.28 7.19 7.19 0 0 1-1.9-4.6 6.64 6.64 0 0 1 1.79-4.58 5.55 5.55 0 0 1 8.71.22zm28.4.4a6.32 6.32 0 0 1 2.24 3.9 5.73 5.73 0 0 1-1.62 4.39 5.41 5.41 0 0 1-4.3 1.77 7.09 7.09 0 0 1-4-2.45c-1.16-1.2-2.14-2.53-2.16-3.87A5.49 5.49 0 0 1 299 36a6.2 6.2 0 0 1 3.87-1.77 6 6 0 0 1 3.89 1.77zm59.34 2.05c.95 1.18 1 3 .88 4.64a6.66 6.66 0 0 1-1.54 4.09 5.28 5.28 0 0 1-3.87 1.37 7.12 7.12 0 0 1-4.11-1.53 5.69 5.69 0 0 1-2.46-3.84 5.9 5.9 0 0 1 2.23-4.18 7.58 7.58 0 0 1 4.47-2.14 5.28 5.28 0 0 1 4.4 1.59zm32.32-2.45a6.33 6.33 0 0 1 1.58 4.32 7.39 7.39 0 0 1-1.82 4.28c-1.06 1.33-2.5 2.55-4 2.64a5.84 5.84 0 0 1-4.32-2.28 7.29 7.29 0 0 1-1.9-4.6 6.61 6.61 0 0 1 1.8-4.58 5.54 5.54 0 0 1 8.7.22zm-62.62-1.83a6.3 6.3 0 0 1 2.2 3.94 5.83 5.83 0 0 1-1.62 4.4 5.42 5.42 0 0 1-4.31 1.76 7 7 0 0 1-4-2.45c-1.16-1.2-2.15-2.53-2.16-3.87a5.41 5.41 0 0 1 2.09-3.72 6.17 6.17 0 0 1 3.87-1.78 6 6 0 0 1 3.93 1.72zm-324.67 2.1c.95 1.18 1 3 .9 4.64a6.71 6.71 0 0 1-1.55 4.09A5.24 5.24 0 0 1 6.6 46a7.12 7.12 0 0 1-4.11-1.53A5.67 5.67 0 0 1 0 40.6a5.88 5.88 0 0 1 2.23-4.18 7.58 7.58 0 0 1 4.47-2.14 5.25 5.25 0 0 1 4.43 1.58zm348.7 39.46c-.95-1.17-1.05-3-.88-4.63a6.69 6.69 0 0 1 1.54-4.1 5.28 5.28 0 0 1 3.87-1.37 7.14 7.14 0 0 1 4.11 1.54 5.65 5.65 0 0 1 2.53 3.83 5.9 5.9 0 0 1-2.23 4.18 7.58 7.58 0 0 1-4.47 2.14 5.27 5.27 0 0 1-4.47-1.59zm29.6 2.68a6.24 6.24 0 0 1-1.5-4.51 6.83 6.83 0 0 1 1.62-4.49 6.41 6.41 0 0 1 8.94-.11 5.89 5.89 0 0 1 1.5 4.48 6.59 6.59 0 0 1-2 4.15 6.76 6.76 0 0 1-4.17 1.93 5.66 5.66 0 0 1-4.39-1.45zm-61.92-.23a6.27 6.27 0 0 1-1.57-4.32 7.37 7.37 0 0 1 1.81-4.28c1.07-1.33 2.5-2.55 4-2.64a5.81 5.81 0 0 1 4.32 2.28 7.19 7.19 0 0 1 1.9 4.61 6.59 6.59 0 0 1-1.8 4.57 5.54 5.54 0 0 1-8.7-.22zm-28.4-2.5a6.36 6.36 0 0 1-2.2-3.94 5.8 5.8 0 0 1 1.63-4.4 5.4 5.4 0 0 1 4.3-1.76 7.09 7.09 0 0 1 4 2.45c1.16 1.2 2.16 2.53 2.16 3.87a5.41 5.41 0 0 1-2.11 3.72A6.12 6.12 0 0 1 303 77a5.91 5.91 0 0 1-3.89-1.72zm-59.33 2.18c-1-1.18-1.05-3-.9-4.64a6.67 6.67 0 0 1 1.55-4.09 5.24 5.24 0 0 1 3.87-1.37 7.12 7.12 0 0 1 4.11 1.53 5.67 5.67 0 0 1 2.49 3.84 5.92 5.92 0 0 1-2.23 4.18A7.56 7.56 0 0 1 244.2 79a5.24 5.24 0 0 1-4.43-1.54zm29.58-1.6a6.26 6.26 0 0 1-1.49-4.51 6.75 6.75 0 0 1 1.62-4.52 6.23 6.23 0 0 1 4.43-1.83 6.13 6.13 0 0 1 4.51 1.75 6 6 0 0 1 1.5 4.48 6.61 6.61 0 0 1-2 4.15 6.79 6.79 0 0 1-4.17 1.93 5.66 5.66 0 0 1-4.4-1.45zm-60.6 1.9a6.32 6.32 0 0 1-1.57-4.32 7.44 7.44 0 0 1 1.82-4.28c1.07-1.33 2.5-2.55 4-2.64a5.8 5.8 0 0 1 4.31 2.28 7.19 7.19 0 0 1 1.9 4.61 6.62 6.62 0 0 1-1.75 4.58 5.55 5.55 0 0 1-8.71-.22zm-28.4 1.78a6.27 6.27 0 0 1-2.19-3.94 5.83 5.83 0 0 1 1.62-4.4 5.42 5.42 0 0 1 4.31-1.76 7.06 7.06 0 0 1 4 2.45c1.16 1.2 2.14 2.53 2.16 3.87a5.45 5.45 0 0 1-2.11 3.73 6.2 6.2 0 0 1-3.87 1.77 6 6 0 0 1-3.92-1.72zM121 75.32c-1-1.17-1.05-3-.88-4.63a6.69 6.69 0 0 1 1.54-4.1 5.28 5.28 0 0 1 3.87-1.37 7.14 7.14 0 0 1 4.11 1.54 5.65 5.65 0 0 1 2.49 3.83 5.9 5.9 0 0 1-2.23 4.18 7.58 7.58 0 0 1-4.47 2.14 5.27 5.27 0 0 1-4.43-1.59zM150.6 78a6.24 6.24 0 0 1-1.5-4.51 6.83 6.83 0 0 1 1.62-4.49 6.41 6.41 0 0 1 8.94-.11 5.89 5.89 0 0 1 1.5 4.48 6.59 6.59 0 0 1-2 4.15 6.76 6.76 0 0 1-4.16 1.89 5.66 5.66 0 0 1-4.4-1.41zm-61.9-.23a6.27 6.27 0 0 1-1.57-4.32 7.37 7.37 0 0 1 1.81-4.28c1.07-1.33 2.5-2.55 4-2.64a5.81 5.81 0 0 1 4.32 2.28 7.19 7.19 0 0 1 1.9 4.61A6.59 6.59 0 0 1 97.39 78a5.54 5.54 0 0 1-8.7-.22zm-28.4-2.5a6.36 6.36 0 0 1-2.2-3.94 5.8 5.8 0 0 1 1.63-4.4A5.4 5.4 0 0 1 64 65.18a7.09 7.09 0 0 1 4 2.45c1.15 1.2 2.14 2.53 2.15 3.87A5.41 5.41 0 0 1 68 75.22 6.12 6.12 0 0 1 64.18 77a5.91 5.91 0 0 1-3.89-1.72zM1 77.46c-.95-1.18-1-3-.9-4.64a6.67 6.67 0 0 1 1.55-4.09 5.24 5.24 0 0 1 3.87-1.37 7.12 7.12 0 0 1 4.11 1.53 5.67 5.67 0 0 1 2.49 3.84 5.92 5.92 0 0 1-2.23 4.18A7.56 7.56 0 0 1 5.38 79 5.24 5.24 0 0 1 1 77.46zm29.53-1.6A6.26 6.26 0 0 1 29 71.35a6.75 6.75 0 0 1 1.62-4.52A6.23 6.23 0 0 1 35.09 65a6.13 6.13 0 0 1 4.51 1.75 6 6 0 0 1 1.5 4.48 6.61 6.61 0 0 1-2 4.15 6.79 6.79 0 0 1-4.17 1.93 5.66 5.66 0 0 1-4.4-1.45zm240.85 37.38a6.38 6.38 0 0 1-2.2-3.95 5.78 5.78 0 0 1 1.63-4.39 5.41 5.41 0 0 1 4.3-1.77 7.09 7.09 0 0 1 4 2.45c1.15 1.2 2.14 2.53 2.15 3.87a5.45 5.45 0 0 1-2.11 3.73 6.16 6.16 0 0 1-3.86 1.77 5.9 5.9 0 0 1-3.91-1.71zm59.56-4.24c-.95-1.18-1.05-3-.9-4.64a6.71 6.71 0 0 1 1.55-4.09 5.24 5.24 0 0 1 3.87-1.37 7.12 7.12 0 0 1 4.11 1.53 5.67 5.67 0 0 1 2.49 3.83 5.88 5.88 0 0 1-2.23 4.18 7.58 7.58 0 0 1-4.47 2.14 5.25 5.25 0 0 1-4.43-1.58zm27.46 2.62a6.26 6.26 0 0 1-1.49-4.51 6.75 6.75 0 0 1 1.62-4.52 6.42 6.42 0 0 1 8.94-.12A6 6 0 0 1 369 107a6.61 6.61 0 0 1-2 4.15 6.79 6.79 0 0 1-4.17 1.93 5.66 5.66 0 0 1-4.44-1.46zm-178.7-.16a6.41 6.41 0 0 1-1.57-4.33 7.42 7.42 0 0 1 1.82-4.28c1.06-1.33 2.5-2.55 4-2.64a5.84 5.84 0 0 1 4.32 2.28 7.32 7.32 0 0 1 1.9 4.61 6.63 6.63 0 0 1-1.8 4.57 6.06 6.06 0 0 1-4.46 2 6.16 6.16 0 0 1-4.21-2.21zm208.7 1.77a6.34 6.34 0 0 1-2.2-4 5.81 5.81 0 0 1 1.62-4.39 5.42 5.42 0 0 1 4.31-1.76 7 7 0 0 1 4 2.44c1.16 1.2 2.15 2.53 2.16 3.87a5.45 5.45 0 0 1-2.11 3.73 6.08 6.08 0 0 1-3.87 1.77 5.85 5.85 0 0 1-3.91-1.66zm-178.32-2.1c-1-1.18-1.05-3-.88-4.64a6.66 6.66 0 0 1 1.54-4.09 5.28 5.28 0 0 1 3.87-1.37 7.19 7.19 0 0 1 4.11 1.53 5.69 5.69 0 0 1 2.49 3.84 5.9 5.9 0 0 1-2.23 4.18 7.58 7.58 0 0 1-4.47 2.14 5.3 5.3 0 0 1-4.43-1.59zm29.6-1.6a6.23 6.23 0 0 1-1.5-4.51 6.8 6.8 0 0 1 1.62-4.52 6.23 6.23 0 0 1 4.43-1.87 6.13 6.13 0 0 1 4.51 1.76 5.86 5.86 0 0 1 1.5 4.48 6.59 6.59 0 0 1-2 4.15 6.82 6.82 0 0 1-4.17 1.93 5.63 5.63 0 0 1-4.39-1.42zm61.56 1.86a6.36 6.36 0 0 1-1.58-4.32 7.42 7.42 0 0 1 1.82-4.29c1.06-1.33 2.5-2.55 4-2.63a5.83 5.83 0 0 1 4.32 2.27 7.32 7.32 0 0 1 1.9 4.61 6.59 6.59 0 0 1-1.8 4.57 5.53 5.53 0 0 1-8.7-.21zm-149.9-.3a6.31 6.31 0 0 1-2.2-3.94 5.82 5.82 0 0 1 1.62-4.4 5.42 5.42 0 0 1 4.31-1.76 7 7 0 0 1 4 2.44c1.16 1.2 2.15 2.53 2.16 3.87a5.45 5.45 0 0 1-2.11 3.73 6.08 6.08 0 0 1-3.87 1.77 5.85 5.85 0 0 1-3.91-1.71zM92 109c-1-1.18-1-3-.9-4.64a6.69 6.69 0 0 1 1.54-4.1 5.29 5.29 0 0 1 3.87-1.36 7.06 7.06 0 0 1 4.11 1.53 5.61 5.61 0 0 1 2.49 3.83c.07 1.47-.95 3-2.22 4.18a7.58 7.58 0 0 1-4.47 2.14A5.27 5.27 0 0 1 92 109zm-61.47 2.68a6.28 6.28 0 0 1-1.53-4.51 6.79 6.79 0 0 1 1.62-4.53 6.22 6.22 0 0 1 4.43-1.86 6.13 6.13 0 0 1 4.51 1.75A6 6 0 0 1 41.1 107a6.64 6.64 0 0 1-2 4.15 6.79 6.79 0 0 1-4.17 1.93 5.66 5.66 0 0 1-4.4-1.4zm29.12-.22a6.36 6.36 0 0 1-1.57-4.33 7.47 7.47 0 0 1 1.81-4.28c1.07-1.33 2.5-2.55 4-2.64a5.81 5.81 0 0 1 4.32 2.28 7.21 7.21 0 0 1 1.9 4.61 6.62 6.62 0 0 1-1.79 4.57 5.54 5.54 0 0 1-8.71-.21zm62.63 1.84a6.38 6.38 0 0 1-2.2-4 5.78 5.78 0 0 1 1.63-4.39 5.39 5.39 0 0 1 4.3-1.77 7.12 7.12 0 0 1 4 2.45c1.15 1.2 2.14 2.53 2.15 3.87a5.45 5.45 0 0 1-2.11 3.73 6.16 6.16 0 0 1-3.87 1.77 6 6 0 0 1-3.9-1.66zM1.5 109.54A6.23 6.23 0 0 1 0 105a6.8 6.8 0 0 1 1.62-4.52 6.23 6.23 0 0 1 4.43-1.87 6.13 6.13 0 0 1 4.51 1.76 5.86 5.86 0 0 1 1.5 4.48 6.59 6.59 0 0 1-2 4.15 6.82 6.82 0 0 1-4.17 2 5.63 5.63 0 0 1-4.39-1.46z"/></svg>