<svg xmlns="http://www.w3.org/2000/svg" viewBox="0 0 662.09 636.23" xmlns:v="https://vecta.io/nano"><path d="M391.62 636.23a257.6 257.6 0 0 1-83.37-14c-63.8-21.73-123.23-68.77-171.85-136-49.15-68-86.55-155.84-108.14-254h0c-3.24-14.67-7.4-29.56-11.42-44C-.82 124.94-17.5 65.12 38.42 22.6 67.9.16 113.8-6 161.2 6.08c46.9 12 90.5 35 132.67 57.33l31.5 16.48C437.88 137.35 505.8 172 567.83 230.1c55.65 52.46 88.53 114.23 92.6 174 1.66 13.37 2.06 24.36 1.27 34.5-2.87 42.23-24.32 80.4-63.77 113.4-47.7 40-97.44 66.1-147.82 77.56a263.73 263.73 0 0 1-58.49 6.67zM114.3 2.83c-29 0-55.1 7.52-74.17 22-54.4 41.37-38 100.3-20.56 162.67 4 14.44 8.2 29.37 11.46 44.1h0c21.5 97.78 58.74 185.25 107.67 252.95 48.3 66.8 107.22 113.44 170.46 135a254.4 254.4 0 0 0 140.32 7.24c49.94-11.35 99.28-37.25 146.63-77 38.84-32.5 59.95-70 62.76-111.5.78-9.95.38-20.75-1.26-34-4-59.08-36.6-120.2-91.72-172.15-61.74-57.8-129.52-92.42-241.8-149.77l-31.53-16.5c-42-22.23-85.47-45.2-132-57.1a187.19 187.19 0 0 0-46.25-5.98z" fill="#e5eed9"/></svg>