<svg xmlns="http://www.w3.org/2000/svg" viewBox="0 0 19 19" fill="#3b672e" xmlns:v="https://vecta.io/nano"><circle cx="9.5" cy="9.5" r="2.05"/><path d="M9.5 0A9.5 9.5 0 1 0 19 9.5 9.5 9.5 0 0 0 9.5 0zm6.13 12a4.63 4.63 0 0 1-.29 1.5 3.15 3.15 0 0 1-1.8 1.8 4.63 4.63 0 0 1-1.5.29H6.96a4.63 4.63 0 0 1-1.5-.29 3.15 3.15 0 0 1-1.8-1.8 4.63 4.63 0 0 1-.29-1.5V6.92a4.63 4.63 0 0 1 .29-1.5 3.15 3.15 0 0 1 1.8-1.8A4.63 4.63 0 0 1 7 3.37h5.08a4.63 4.63 0 0 1 1.5.29 3.15 3.15 0 0 1 1.8 1.8A4.63 4.63 0 0 1 15.63 7v5zM14.3 5.87a1.78 1.78 0 0 0-.46-.71 1.78 1.78 0 0 0-.71-.46A3.22 3.22 0 0 0 12 4.48H7.02a3.22 3.22 0 0 0-1.14.22 1.78 1.78 0 0 0-.71.46 1.78 1.78 0 0 0-.46.71A3.22 3.22 0 0 0 4.48 7v4.98a3.22 3.22 0 0 0 .22 1.14 1.78 1.78 0 0 0 .46.71 1.78 1.78 0 0 0 .71.46 3.22 3.22 0 0 0 1.13.23h4.98a3.22 3.22 0 0 0 1.14-.22 2 2 0 0 0 1.17-1.17 3.22 3.22 0 0 0 .23-1.13V7.02a3.22 3.22 0 0 0-.22-1.15zm-4.8 6.8a3.16 3.16 0 1 1 3.16-3.16 3.15 3.15 0 0 1-3.16 3.16zM12.8 7a.74.74 0 1 1 .74-.74.74.74 0 0 1-.74.74z"/></svg>