<svg xmlns="http://www.w3.org/2000/svg" viewBox="0 0 58 58" xmlns:v="https://vecta.io/nano"><path d="M29 0a29 29 0 1 0 29 29A29 29 0 0 0 29 0zm10.12 16.68a1.34 1.34 0 0 1 1.09-.48 1.66 1.66 0 0 1 1.62 1.59 1.68 1.68 0 0 1-1.62 1.62 1.38 1.38 0 0 1-1.08-.49 1.55 1.55 0 0 1-.49-1.13h0a1.5 1.5 0 0 1 .48-1.11zM27.88 12a1.6 1.6 0 0 1 1.12-.42 1.49 1.49 0 0 1 1.11.46 1.61 1.61 0 0 1 .47 1.13A1.59 1.59 0 0 1 29 14.72a1.71 1.71 0 0 1-1.16-.46 1.42 1.42 0 0 1-.48-1.09h0a1.51 1.51 0 0 1 .52-1.17zm-11.2 4.64a1.34 1.34 0 0 1 1.09-.48 1.65 1.65 0 0 1 1.61 1.59 1.66 1.66 0 0 1-1.61 1.62 1.38 1.38 0 0 1-1.09-.49 1.54 1.54 0 0 1-.48-1.13 1.46 1.46 0 0 1 .48-1.07zm-2.38 13.5a1.54 1.54 0 0 1-2.2 0h0a1.42 1.42 0 0 1-.5-1.14 1.67 1.67 0 0 1 .46-1.16 1.43 1.43 0 0 1 1.11-.48 1.47 1.47 0 0 1 1.13.48 1.62 1.62 0 0 1 .47 1.16 1.54 1.54 0 0 1-.47 1.14zm4.6 11.18a1.55 1.55 0 0 1-1.13.49 1.38 1.38 0 0 1-1.09-.49 1.46 1.46 0 0 1-.48-1.11 1.48 1.48 0 0 1 .48-1.11 1.37 1.37 0 0 1 1.09-.48 1.65 1.65 0 0 1 1.61 1.59 1.46 1.46 0 0 1-.48 1.11zM30.14 46a1.49 1.49 0 0 1-1.11.46 1.64 1.64 0 0 1-1.15-.46 1.44 1.44 0 0 1-.48-1.13h0a1.46 1.46 0 0 1 .49-1.09 1.64 1.64 0 0 1 1.11-.5 1.58 1.58 0 0 1 1.57 1.55 1.56 1.56 0 0 1-.43 1.17zm11.2-4.64a1.55 1.55 0 0 1-1.13.49 1.38 1.38 0 0 1-1.08-.49 1.44 1.44 0 0 1-.49-1.11h0a1.51 1.51 0 0 1 .48-1.11 1.37 1.37 0 0 1 1.09-.48 1.67 1.67 0 0 1 1.62 1.59 1.51 1.51 0 0 1-.49 1.07zm-1-10.76H32.9l5.3 5.3a1.51 1.51 0 0 1 .42 1.09 1.69 1.69 0 0 1-.42 1.13 1.54 1.54 0 0 1-1.13.48 1.48 1.48 0 0 1-1.07-.52l-5.3-5.3v7.47a1.56 1.56 0 0 1-.46 1.13 1.49 1.49 0 0 1-1.11.46 1.64 1.64 0 0 1-1.14-.46 1.51 1.51 0 0 1-.49-1.13V32.8l-5.3 5.2a1.61 1.61 0 0 1-2.29 0 1.66 1.66 0 0 1-.46-1.1 1.43 1.43 0 0 1 .53-1.08l5.3-5.28h-7.53a1.58 1.58 0 0 1-1.11-.47 1.18 1.18 0 0 1-.5-1 1.71 1.71 0 0 1 .46-1.16 1.44 1.44 0 0 1 1.11-.48h7.46l-5.26-5.27a1.38 1.38 0 0 1-.49-1.16 1.61 1.61 0 0 1 2.75-1.13l5.24 5.24v-7.37a1.57 1.57 0 0 1 .49-1.15 1.54 1.54 0 0 1 1.15-.49 1.46 1.46 0 0 1 1.11.49 1.6 1.6 0 0 1 .46 1.15v7.46l5.3-5.3a1.48 1.48 0 0 1 1.1-.48 1.58 1.58 0 0 1 1.14.48 1.68 1.68 0 0 1 .41 1.11 1.46 1.46 0 0 1-.41 1.09l-5.27 5.26h7.46a1.48 1.48 0 0 1 1.09.49 1.65 1.65 0 0 1 .46 1.16 1.58 1.58 0 0 1-1.55 1.56zm4.48 0a1.56 1.56 0 0 1-1.13-.46 1.52 1.52 0 0 1-.43-1.14h0a1.64 1.64 0 0 1 .46-1.15 1.51 1.51 0 0 1 1.13-.49 1.46 1.46 0 0 1 1.09.49A1.6 1.6 0 0 1 46.4 29a1.58 1.58 0 0 1-1.55 1.58z" fill="#3b672e"/></svg>