<svg xmlns="http://www.w3.org/2000/svg" viewBox="0 0 54.03 64" xmlns:v="https://vecta.io/nano"><path d="M11.2 24.74c2-5.7 5.1-8.35 7.88-10.8.75-.66 1.5-1.3 2.18-2 .5-.5 1-1 1.4-1.48a14.12 14.12 0 0 1 3.41-3 4.78 4.78 0 0 1 4.09-.1h.07l.35.17 1.18.6c1.9 1.32 2.07 3.36 2.24 6.4 0 .65.07 1.34.13 2 0 .38.08.77.13 1.14h0l.27 1.78c.58 3.67 1.24 7.65-.85 13.34-2.53 7-9.17 9.65-15.4 7.4s-9.62-8.47-7.1-15.46z" fill="#3b672e"/><path d="M9.2 24c-2.94 8.12 1.08 15.6 8.37 18.25s15.16-.55 18.1-8.68a26 26 0 0 0 1-13.83l2.1 1.35 1.6 1 .47.3.12.08a1.07 1.07 0 0 0 1.63-1h0v.03-.24c0-.1 0-.5-.08-.86a33.55 33.55 0 0 0-.44-2.81 16 16 0 0 0-2.68-6.7c-2.1-2.5-4.8-3.6-6.64-4.57h0a8.28 8.28 0 0 0-.94-.53A5.54 5.54 0 0 0 32 3.06 17.1 17.1 0 0 0 30.69 0l-1.93.88a15.12 15.12 0 0 1 1.13 2.65 3.1 3.1 0 0 1-.05 1.53 6.61 6.61 0 0 0-4.76.52A16 16 0 0 0 21.1 9c-.44.47-.9 1-1.35 1.4-.64.64-1.33 1.25-2.08 1.9A26.48 26.48 0 0 0 9.19 24zm27.1-7c0-.2 0-.38-.06-.57-.07-.66-.1-1.3-.14-2a19.23 19.23 0 0 0-.53-4.24 10 10 0 0 1 2.24 2A14.2 14.2 0 0 1 40.05 18c.12.56.2 1.1.27 1.56l-.32-.23zm-25.1 7.74c2-5.7 5.1-8.35 7.88-10.8.75-.66 1.5-1.3 2.18-2 .5-.5 1-1 1.4-1.48a14.12 14.12 0 0 1 3.41-3 4.78 4.78 0 0 1 4.09-.1h.07l.35.17 1.18.6c1.9 1.32 2.07 3.36 2.24 6.4 0 .65.07 1.34.13 2 0 .38.08.77.13 1.14h0l.27 1.78c.58 3.67 1.24 7.65-.85 13.34-2.53 7-9.17 9.65-15.4 7.4s-9.62-8.47-7.1-15.46z"/><path d="M36.3 17c0-.2 0-.38-.06-.57l-.14-2a19.23 19.23 0 0 0-.53-4.24 10 10 0 0 1 2.24 2A14.2 14.2 0 0 1 40.05 18l.27 1.56-.32-.23z" fill="#d40088"/><path d="M36 45.44c-6.65 0-12-4.76-12-12.2 0-6.07 1.94-9.6 3.73-12.84.3-.54.57-1 .86-1.58h0l.5-1c.3-.64.57-1.27.82-1.87 1.2-2.8 2.06-4.67 4.3-5.27l1.3-.16H36a4.75 4.75 0 0 1 3.81 1.49 13.92 13.92 0 0 1 2.18 4l.83 1.87c.4.87.88 1.74 1.37 2.6 1.8 3.16 3.8 6.68 3.73 12.75 0 7.43-5.33 12.2-11.92 12.2z" fill="#b2d12f"/><path d="M36 21.6c-2.74 0-4.65 2-5.8 4.22a17.52 17.52 0 0 0-1.76 7.44A7.84 7.84 0 0 0 30.34 39a7.6 7.6 0 0 0 5.63 2 7.6 7.6 0 0 0 5.63-2 7.88 7.88 0 0 0 1.93-5.7 17.36 17.36 0 0 0-1.75-7.44c-1.16-2.3-3.07-4.27-5.78-4.27zm4.1 15.88A5.53 5.53 0 0 1 36 38.81a5.53 5.53 0 0 1-4.11-1.34 5.77 5.77 0 0 1-1.34-4.22A14.44 14.44 0 0 1 32 26.79c1-2 2.36-3.08 3.93-3.08s2.9 1.12 3.93 3.08a14.3 14.3 0 0 1 1.51 6.46 5.78 5.78 0 0 1-1.29 4.22zm6-18.08l-1.3-2.5-.8-1.8a16 16 0 0 0-2.57-4.59 6.58 6.58 0 0 0-4.3-2.11 3.2 3.2 0 0 1 .47-1.46 16 16 0 0 1 2-2.11L38 3.35a18.52 18.52 0 0 0-2.24 2.44 5.5 5.5 0 0 0-.76 2.6 8.06 8.06 0 0 0-1.06.18h0c-2.05.3-5 .4-7.8 2A16.06 16.06 0 0 0 21.26 16l-1.37 2.5-.38.78-.1.2v.06a1 1 0 0 0 .16 1.09 1 1 0 0 0 1.05.36h.2l.54-.12 1.85-.42 2.44-.56a26 26 0 0 0-3.76 13.34c0 8.64 6.32 14.3 14.07 14.3S50 41.9 50 33.25a26.48 26.48 0 0 0-4-13.86zm-23.33-1l-.42.1q.33-.64.78-1.38a14.06 14.06 0 0 1 4.08-4.67 9.58 9.58 0 0 1 2.79-1.13 19.31 19.31 0 0 0-2 3.81c-.25.6-.5 1.2-.8 1.8-.08.18-.17.35-.25.52zM36 45.44c-6.65 0-12-4.76-12-12.2 0-6.07 1.94-9.6 3.73-12.84.3-.54.57-1 .86-1.58h0l.5-1c.3-.64.57-1.27.82-1.87 1.2-2.8 2.06-4.67 4.3-5.27l1.3-.16H36a4.75 4.75 0 0 1 3.81 1.49 13.92 13.92 0 0 1 2.18 4l.83 1.87c.4.87.88 1.74 1.37 2.6 1.8 3.16 3.8 6.68 3.73 12.75 0 7.43-5.33 12.2-11.92 12.2z"/><path d="M40.08 37.47A5.53 5.53 0 0 1 36 38.81a5.53 5.53 0 0 1-4.11-1.34 5.77 5.77 0 0 1-1.34-4.22A14.44 14.44 0 0 1 32 26.79c1-2 2.36-3.08 3.93-3.08s2.9 1.12 3.93 3.08a14.3 14.3 0 0 1 1.51 6.46 5.78 5.78 0 0 1-1.29 4.22z" fill="#fdd210"/><path d="M22.7 18.37l-.42.1q.33-.64.78-1.38a14.06 14.06 0 0 1 4.08-4.67 9.58 9.58 0 0 1 2.79-1.13 19.31 19.31 0 0 0-2 3.81l-.8 1.8-.25.52z" fill="#70bb3b"/><path d="M53.88 40.8a2 2 0 0 0-1.81-1.22h-1a10 10 0 0 0-4.87 1.27L38.82 45h-2.1A5.81 5.81 0 0 0 31 40.21H17.75a1.06 1.06 0 0 0-.79.37l-4 4.76a1 1 0 0 0-.78-.36H1a1 1 0 1 0 0 2.07h4.18v14.87H1A1 1 0 0 0 1 64h11.16a1 1 0 0 0 1-1v-5l21.22-1a14.91 14.91 0 0 0 8.84-4.15l10.18-9.92a1.94 1.94 0 0 0 .48-2.12zm-42.76 21.1H7.26V47.05h3.86zm30.7-10.54a12.83 12.83 0 0 1-7.58 3.56l-21 1v-7.68l5-6H31a3.72 3.72 0 0 1 3.64 2.93l-10.5 2.6a1 1 0 0 0 .25 2.05 1 1 0 0 0 .24 0l11.28-2.77h3.18a1 1 0 0 0 .51-.13l7.6-4.25a7.91 7.91 0 0 1 3.86-1h.7z"/><path d="M41.8 51.38a12.83 12.83 0 0 1-7.58 3.56l-21 1v-7.68l5-6H31a3.72 3.72 0 0 1 3.64 2.93l-10.5 2.6a1 1 0 0 0 .25 2.05 1 1 0 0 0 .24 0l11.28-2.77h3.18a1 1 0 0 0 .51-.13l7.6-4.25a7.91 7.91 0 0 1 3.86-1h.7z" fill="#e4bb79"/><path d="M7.26 47.05h3.86v14.87H7.26z" fill="#3b672e"/></svg>