<svg xmlns="http://www.w3.org/2000/svg" viewBox="0 0 58.85 51.86" xmlns:v="https://vecta.io/nano"><path d="M58.26 16.68a1.1 1.1 0 0 0-1.49.45l-2.32 4.33A25.81 25.81 0 0 0 29.06 0h-.58A25.79 25.79 0 0 0 6.22 13.83h0a1.12 1.12 0 0 0-.12.54 1.1 1.1 0 0 0 2.08.49A23.58 23.58 0 0 1 28.53 2.21h.53a23.57 23.57 0 0 1 23.32 20.31L47.8 18.4a1.14 1.14 0 0 0-.79-.28 1.12 1.12 0 0 0-.77.36 1.08 1.08 0 0 0-.28.77 1.12 1.12 0 0 0 .36.79L53 26h.06a1.22 1.22 0 0 0 .26.14l.1.05h.06a.52.52 0 0 0 .17 0h.17a1.26 1.26 0 0 0 .38-.1h0a.93.93 0 0 0 .27-.19h.05a.56.56 0 0 1 0-.08h0a.39.39 0 0 0 .08-.1l4-7.55a1.11 1.11 0 0 0-.34-1.49zm-6.1 19.85a1.11 1.11 0 0 0-.84-.07 1.07 1.07 0 0 0-.65.54 23.56 23.56 0 0 1-44.2-7.66L11 33.46a1.09 1.09 0 0 0 .8.29 1.11 1.11 0 0 0 1.05-1.16 1.11 1.11 0 0 0-.37-.76l-6.62-6H5.8l-.23-.14h-.1a.62.62 0 0 0-.18 0h-.22a1 1 0 0 0-.38.1h-.05a1 1 0 0 0-.26.19h0a.26.26 0 0 0 0 .09h0a.43.43 0 0 0-.07.1l-4 7.55a1.118 1.118 0 0 0 2 1l2.1-4.32A25.8 25.8 0 0 0 29.8 51.86h.58A25.77 25.77 0 0 0 52.62 38a1.11 1.11 0 0 0-.46-1.47z"/><path d="M35.45 28.75A7 7 0 0 0 37 24.12c-1.07 0-3.3.24-4.62 1.57a7 7 0 0 0-1.56 4.62c1.08-.02 3.3-.24 4.63-1.56z" fill="#b2d12f"/><path d="M29.83 21.7A7 7 0 0 0 32 17.34 7 7 0 0 0 29.83 13a7 7 0 0 0-2.17 4.37 7 7 0 0 0 2.17 4.34z" fill="#70bb3b"/><path d="M27.26 25.7c-1.32-1.33-3.54-1.54-4.62-1.57a7 7 0 0 0 1.56 4.63h0c1.4 1.4 3.72 1.55 4.62 1.56a7 7 0 0 0-1.56-4.62z" fill="#b2d12f"/><path d="M35.75 39.85l-.9.55-.5-.95a5.11 5.11 0 0 0-3.52-2.68v2.45a1.86 1.86 0 0 0 .27-.22 1 1 0 0 1 1.4 1.4 3.74 3.74 0 0 1-2.67 1.11 3.78 3.78 0 0 1-2.68-1.11 1 1 0 0 1 1.4-1.4 1.93 1.93 0 0 0 .28.22v-2.45a5.13 5.13 0 0 0-3.53 2.68l-.48.95-.9-.55a5.08 5.08 0 0 0-6 .56 19.67 19.67 0 0 0 23.86 0 5.06 5.06 0 0 0-6.02-.56z" fill="#e4bb79"/><path d="M44 39.93a7 7 0 0 0-5.62-2.81 6.88 6.88 0 0 0-2.77.58 7 7 0 0 0-4.77-3v-2.4a8.81 8.81 0 0 0 6-2.15c2.6-2.56 2.16-6.93 2.16-7.1a1 1 0 0 0-.89-.89 8.33 8.33 0 0 0-.88 0c-1.52 0-4.36.28-6.23 2.15l-.15.16v-.9c.85-.8 3.16-3.23 3.16-6.2 0-3.63-3.4-6.4-3.53-6.52a1 1 0 0 0-1.26 0c-.15.1-3.54 2.9-3.54 6.52 0 3 2.3 5.4 3.17 6.2v.9l-.15-.16c-1.9-1.9-4.7-2.2-6.26-2.2a8.33 8.33 0 0 0-.88 0 1 1 0 0 0-.89.89c0 .2-.44 4.56 2.12 7.1a8.79 8.79 0 0 0 6 2.15v2.44a7.07 7.07 0 0 0-4.78 3 6.8 6.8 0 0 0-2.76-.58 7 7 0 0 0-5.63 2.81l-.57.75.72.6a21.68 21.68 0 0 0 28 0l.72-.6zM32.4 25.7c1.33-1.33 3.55-1.54 4.62-1.57a7 7 0 0 1-1.56 4.63c-1.32 1.32-3.55 1.54-4.62 1.56a7 7 0 0 1 1.56-4.62zm-8.2 3.06h0a7 7 0 0 1-1.56-4.63c1.08 0 3.3.24 4.62 1.57a7 7 0 0 1 1.56 4.62c-.9-.01-3.23-.17-4.62-1.56zM17.9 40.4a5.08 5.08 0 0 1 6-.56l.9.55.48-.95a5.13 5.13 0 0 1 3.53-2.68v2.45a1.93 1.93 0 0 1-.28-.22 1 1 0 0 0-1.4 1.4 3.78 3.78 0 0 0 2.68 1.11 3.74 3.74 0 0 0 2.68-1.11 1 1 0 0 0-1.4-1.4 1.86 1.86 0 0 1-.27.22v-2.45a5.11 5.11 0 0 1 3.52 2.68l.5.95.9-.55a5.06 5.06 0 0 1 6 .56 19.67 19.67 0 0 1-23.86 0zm9.76-23.07A7 7 0 0 1 29.83 13 7 7 0 0 1 32 17.34a7 7 0 0 1-2.16 4.37 7 7 0 0 1-2.18-4.37z"/></svg>