<svg xmlns="http://www.w3.org/2000/svg" viewBox="0 0 58 58" fill="#3b672e" xmlns:v="https://vecta.io/nano"><path d="M29 0a29 29 0 1 0 29 29A29 29 0 0 0 29 0zm0 46.4a17.4 17.4 0 0 1 0-34.8h0a17.4 17.4 0 0 1 0 34.8zm0-31.32A13.92 13.92 0 1 0 42.92 29 13.92 13.92 0 0 0 29 15.08zm6.1 7a2.61 2.61 0 0 1 0 5.22H35a2.57 2.57 0 0 1-2.51-2.61 2.61 2.61 0 0 1 2.6-2.69zM22.9 22a2.61 2.61 0 0 1 0 5.22h-.1a2.57 2.57 0 0 1-2.51-2.61A2.61 2.61 0 0 1 22.91 22zM29 38.57a9.45 9.45 0 0 1-8.87-6.09h17.74A9.45 9.45 0 0 1 29 38.57z"/></svg>