<svg xmlns="http://www.w3.org/2000/svg" viewBox="0 0 58 58" xmlns:v="https://vecta.io/nano"><path d="M29 0a29 29 0 1 0 29 29A29 29 0 0 0 29 0zm-4.53 42.5l-.8-.9c-3.7-1.67-7.5-1.4-10.24-5.17C11 33.05 11 28.7 7.9 25.2c3.13 4 7.16 1.07 11.25 2.2 4.84 1.33 5.84 6.6 6 11.25-1-4.73-5.57-7.72-10.2-8.23a16.38 16.38 0 0 1 9.5 12.08zM43 33.9c-3.66 5.73-9.2 5.64-14.43 8.38l-1.1 1.36A23.82 23.82 0 0 1 40.19 25.3c-6.67 1.14-13.08 5.87-14.1 12.8-.18-6.77.88-14.5 7.76-16.83 5.84-2 11.94 2 16.14-4.13-4.22 5.33-3.8 11.65-7 16.75z" fill="#3b672e"/></svg>