<svg xmlns="http://www.w3.org/2000/svg" viewBox="0 0 32 31.88" xmlns:v="https://vecta.io/nano"><path d="M25.1 31.88a1.38 1.38 0 0 1-.86-.31L16.05 25l-8.3 6.57a1.38 1.38 0 0 1-2.18-1.49l3.27-10.44-8.3-6.27a1.34 1.34 0 0 1-.49-1.53 1.36 1.36 0 0 1 1.31-.95h10.18L14.7 1A1.37 1.37 0 0 1 16 0h0a1.37 1.37 0 0 1 1.31 1l3.12 9.87 10.18.05a1.36 1.36 0 0 1 1.31.95 1.34 1.34 0 0 1-.49 1.53l-8.26 6.2L26.4 30.1a1.38 1.38 0 0 1-.54 1.55 1.34 1.34 0 0 1-.77.22zM16 23.7a1.39 1.39 0 0 1 .86.3l8.2 6.55.12-.08L21.9 20a1.36 1.36 0 0 1 .49-1.51l8.26-6.2a.06.06 0 0 0 0-.08L20.5 12.2a1.37 1.37 0 0 1-1.32-1l-3.1-9.84h-.14l-3.06 9.87a1.37 1.37 0 0 1-1.32 1H1.38v.13l8.22 6.16a1.35 1.35 0 0 1 .49 1.48L6.83 30.47l.12.08 8.2-6.55a1.39 1.39 0 0 1 .86-.3z" fill="#3b672e" opacity=".25"/></svg>