<svg xmlns="http://www.w3.org/2000/svg" viewBox="0 0 250 77" fill="#ebed78" xmlns:v="https://vecta.io/nano"><path d="M7.47 4a4.37 4.37 0 0 1 .59 3.1A4.54 4.54 0 0 1 7 9.83a3.56 3.56 0 0 1-2.6.91 4.84 4.84 0 0 1-2.76-1A3.84 3.84 0 0 1 0 7.15a4 4 0 0 1 1.49-2.8 5.09 5.09 0 0 1 3-1.43A3.55 3.55 0 0 1 7.47 4zm21.68-1.66a4.22 4.22 0 0 1 1.06 2.89A4.94 4.94 0 0 1 29 8.1a4.17 4.17 0 0 1-2.71 1.77 3.92 3.92 0 0 1-2.9-1.53 4.82 4.82 0 0 1-1.27-3.08 4.45 4.45 0 0 1 1.2-3.07 4.11 4.11 0 0 1 3-1.34 4.1 4.1 0 0 1 2.83 1.49zM48.2 4a4.27 4.27 0 0 1 1.47 2.64 3.88 3.88 0 0 1-1.09 2.94 3.62 3.62 0 0 1-2.89 1.18A4.67 4.67 0 0 1 43 9.13a4.19 4.19 0 0 1-1.45-2.59A3.65 3.65 0 0 1 43 4.05a4.1 4.1 0 0 1 2.6-1.19A4 4 0 0 1 48.21 4zM88 2.55a4.37 4.37 0 0 1 .59 3.1 4.48 4.48 0 0 1-1 2.75 3.56 3.56 0 0 1-2.6.91 4.84 4.84 0 0 1-2.76-1 3.84 3.84 0 0 1-1.67-2.57 4 4 0 0 1 1.5-2.8 5.06 5.06 0 0 1 3-1.43A3.54 3.54 0 0 1 88 2.55zM68.17 3.62a4.18 4.18 0 0 1 1 3 4.58 4.58 0 0 1-1.08 3 4.21 4.21 0 0 1-3 1.25 4.08 4.08 0 0 1-3-1.18 4 4 0 0 1-1-3 4.56 4.56 0 0 1 4.14-4.06 3.78 3.78 0 0 1 2.94.99zm40.66-1.28a4.25 4.25 0 0 1 1 2.89 5 5 0 0 1-1.21 2.87A4.21 4.21 0 0 1 106 9.87a3.9 3.9 0 0 1-2.89-1.53 4.83 4.83 0 0 1-1.28-3.08A4.42 4.42 0 0 1 103 2.19a4.1 4.1 0 0 1 3-1.34 4.14 4.14 0 0 1 2.83 1.49zm19.05-1.2a4.17 4.17 0 0 1 1.47 2.64 3.84 3.84 0 0 1-1.09 2.94 3.6 3.6 0 0 1-2.88 1.18 4.66 4.66 0 0 1-2.67-1.64 4.19 4.19 0 0 1-1.45-2.59 3.66 3.66 0 0 1 1.42-2.49A4.07 4.07 0 0 1 125.27 0a4 4 0 0 1 2.61 1.15zM167.7 4a4.37 4.37 0 0 1 .6 3.1 4.48 4.48 0 0 1-1 2.75 3.55 3.55 0 0 1-2.6.91 4.81 4.81 0 0 1-2.75-1 3.77 3.77 0 0 1-1.67-2.57 3.91 3.91 0 0 1 1.49-2.8 5.06 5.06 0 0 1 3-1.43A3.53 3.53 0 0 1 167.69 4zm-19.86-1.8a4.19 4.19 0 0 1 1 3 4.59 4.59 0 0 1-1.09 3 4.2 4.2 0 0 1-3 1.25 4.11 4.11 0 0 1-3-1.18 3.92 3.92 0 0 1-1-3 4.37 4.37 0 0 1 1.34-2.77 4.55 4.55 0 0 1 2.79-1.3 3.81 3.81 0 0 1 2.96 1zm41.54.14a4.25 4.25 0 0 1 1.05 2.89 5 5 0 0 1-1.21 2.87 4.21 4.21 0 0 1-2.72 1.77 3.9 3.9 0 0 1-2.89-1.53 4.83 4.83 0 0 1-1.28-3.08 4.46 4.46 0 0 1 1.21-3.07 4.1 4.1 0 0 1 3-1.34 4.14 4.14 0 0 1 2.84 1.49zM208.43 4a4.17 4.17 0 0 1 1.47 2.64 3.84 3.84 0 0 1-1.09 2.94 3.6 3.6 0 0 1-2.88 1.18 4.66 4.66 0 0 1-2.67-1.64 4.19 4.19 0 0 1-1.45-2.59 3.66 3.66 0 0 1 1.42-2.49 4.07 4.07 0 0 1 2.59-1.19A4 4 0 0 1 208.43 4zm39.8-1.45a4.37 4.37 0 0 1 .6 3.1 4.48 4.48 0 0 1-1 2.75 3.55 3.55 0 0 1-2.6.91 4.81 4.81 0 0 1-2.75-1 3.77 3.77 0 0 1-1.67-2.57 3.91 3.91 0 0 1 1.49-2.8 5.06 5.06 0 0 1 3-1.43 3.53 3.53 0 0 1 2.93 1.04zM228.4 3.62a4.19 4.19 0 0 1 1 3 4.54 4.54 0 0 1-1.09 3 4.19 4.19 0 0 1-3 1.25 4.11 4.11 0 0 1-3-1.18 3.92 3.92 0 0 1-1-3A4.37 4.37 0 0 1 222.65 4a4.48 4.48 0 0 1 2.79-1.29 3.77 3.77 0 0 1 2.95.91zM108.37 25.48a4.31 4.31 0 0 1 .6 3.1 4.45 4.45 0 0 1-1 2.74 3.51 3.51 0 0 1-2.6.92 4.75 4.75 0 0 1-2.75-1 3.73 3.73 0 0 1-1.67-2.56 4 4 0 0 1 1.49-2.8 5.13 5.13 0 0 1 3-1.44 3.54 3.54 0 0 1 2.93 1.04zM90 23.7a4.17 4.17 0 0 1 1 3 4.56 4.56 0 0 1-1.09 3 4.31 4.31 0 0 1-6 .07 3.92 3.92 0 0 1-1-3 4.37 4.37 0 0 1 1.3-2.76A4.56 4.56 0 0 1 87 22.74a3.77 3.77 0 0 1 3 .95zm-41.37.14a4.22 4.22 0 0 1 1.06 2.89 4.94 4.94 0 0 1-1.22 2.87 4.16 4.16 0 0 1-2.71 1.76 3.9 3.9 0 0 1-2.9-1.52 4.88 4.88 0 0 1-1.27-3.09 4.43 4.43 0 0 1 1.2-3.06 4.09 4.09 0 0 1 3-1.34 4 4 0 0 1 2.84 1.49zm21.2-1.24a4.27 4.27 0 0 1 1.47 2.64 3.88 3.88 0 0 1-1.09 2.94 3.59 3.59 0 0 1-2.89 1.18 4.71 4.71 0 0 1-2.66-1.63 4.24 4.24 0 0 1-1.45-2.59 3.65 3.65 0 0 1 1.41-2.5 4.15 4.15 0 0 1 2.6-1.19 4 4 0 0 1 2.61 1.15zm-41.57 1.45a4.36 4.36 0 0 1 .6 3.1 4.45 4.45 0 0 1-1 2.74 3.51 3.51 0 0 1-2.6.92 4.75 4.75 0 0 1-2.75-1 3.73 3.73 0 0 1-1.67-2.56 3.89 3.89 0 0 1 1.49-2.8 5.13 5.13 0 0 1 3-1.44 3.54 3.54 0 0 1 2.93 1.04zM8.4 25.12a4.17 4.17 0 0 1 1 3 4.61 4.61 0 0 1-1.09 3 4.2 4.2 0 0 1-3 1.25 4.2 4.2 0 0 1-3-1.18 3.92 3.92 0 0 1-1-3 4.37 4.37 0 0 1 1.34-2.78 4.54 4.54 0 0 1 2.79-1.29 3.77 3.77 0 0 1 2.96 1zm119.9-1.28a4.25 4.25 0 0 1 1.05 2.89 5 5 0 0 1-1.21 2.87 4.2 4.2 0 0 1-2.72 1.76 3.9 3.9 0 0 1-2.89-1.52 4.83 4.83 0 0 1-1.28-3.09 4.44 4.44 0 0 1 1.21-3.06 3.72 3.72 0 0 1 5.84.15zm19.06.23a4.2 4.2 0 0 1 1.47 2.64 3.86 3.86 0 0 1-1.09 2.95 3.63 3.63 0 0 1-2.88 1.18 4.77 4.77 0 0 1-2.67-1.64 4.19 4.19 0 0 1-1.45-2.59 3.68 3.68 0 0 1 1.42-2.5 4.11 4.11 0 0 1 2.59-1.18 4 4 0 0 1 2.61 1.14zm39.8 1.4a4.31 4.31 0 0 1 .6 3.1 4.45 4.45 0 0 1-1 2.74 3.51 3.51 0 0 1-2.6.92 4.75 4.75 0 0 1-2.75-1 3.73 3.73 0 0 1-1.67-2.56 3.93 3.93 0 0 1 1.49-2.8 5.13 5.13 0 0 1 3-1.44 3.54 3.54 0 0 1 2.93 1.04zm41.23-1.78a4.17 4.17 0 0 1 1 3 4.56 4.56 0 0 1-1.09 3 4.31 4.31 0 0 1-6 .07 3.92 3.92 0 0 1-1-3 4.37 4.37 0 0 1 1.35-2.76 4.54 4.54 0 0 1 2.79-1.29 3.77 3.77 0 0 1 2.95.98zm-19.54.14a4.25 4.25 0 0 1 1 2.89 5 5 0 0 1-1.21 2.87 4.2 4.2 0 0 1-2.65 1.76 3.9 3.9 0 0 1-2.89-1.52 4.89 4.89 0 0 1-1.28-3.09 4.44 4.44 0 0 1 1.17-3.06 3.72 3.72 0 0 1 5.84.15z"/><path d="M166.84 22.6a4.17 4.17 0 0 1 1.47 2.64 3.87 3.87 0 0 1-1.08 2.94 3.6 3.6 0 0 1-2.89 1.18 4.76 4.76 0 0 1-2.67-1.63 4.29 4.29 0 0 1-1.45-2.59 3.66 3.66 0 0 1 1.42-2.5 4.15 4.15 0 0 1 2.59-1.19 4 4 0 0 1 2.61 1.15zm81.03 2.52a4.17 4.17 0 0 1 1 3 4.56 4.56 0 0 1-1.09 3 4.31 4.31 0 0 1-6 .07 3.92 3.92 0 0 1-1-3 4.37 4.37 0 0 1 1.34-2.78 4.56 4.56 0 0 1 2.79-1.29 3.77 3.77 0 0 1 2.96 1zm-6.04 26.95a4.25 4.25 0 0 1-1.05-2.89 5 5 0 0 1 1.22-2.87 4.2 4.2 0 0 1 2.72-1.76 3.9 3.9 0 0 1 2.89 1.52 4.83 4.83 0 0 1 1.28 3.09 4.44 4.44 0 0 1-1.21 3.06 4.06 4.06 0 0 1-3 1.34 4.1 4.1 0 0 1-2.85-1.49zm-19.05 1.2a4.2 4.2 0 0 1-1.47-2.64 3.86 3.86 0 0 1 1.09-3 3.63 3.63 0 0 1 2.88-1.18 4.77 4.77 0 0 1 2.72 1.69 4.19 4.19 0 0 1 1.45 2.59 3.68 3.68 0 0 1-1.42 2.5 4.11 4.11 0 0 1-2.59 1.18 4 4 0 0 1-2.66-1.14zM183 50.43a4.31 4.31 0 0 1-.6-3.1 4.45 4.45 0 0 1 1-2.74 3.51 3.51 0 0 1 2.6-.92 4.75 4.75 0 0 1 2.75 1 3.73 3.73 0 0 1 1.67 2.56 3.89 3.89 0 0 1-1.49 2.8 5.13 5.13 0 0 1-3 1.44 3.54 3.54 0 0 1-2.93-1.04zm19.82 1.8a4.17 4.17 0 0 1-1-3 4.56 4.56 0 0 1 1.09-3 4.31 4.31 0 0 1 6-.07 3.92 3.92 0 0 1 1 3 4.37 4.37 0 0 1-1.34 2.78 4.56 4.56 0 0 1-2.79 1.29 3.77 3.77 0 0 1-2.96-1zm-41.54-.15a4.25 4.25 0 0 1-1.05-2.89 5 5 0 0 1 1.21-2.87 4.2 4.2 0 0 1 2.72-1.76 3.9 3.9 0 0 1 2.89 1.52 4.89 4.89 0 0 1 1.28 3.09 4.44 4.44 0 0 1-1.21 3.06 4.06 4.06 0 0 1-3 1.34 4.1 4.1 0 0 1-2.84-1.49zm-19.05-1.67a4.2 4.2 0 0 1-1.47-2.64 3.86 3.86 0 0 1 1.09-3 3.63 3.63 0 0 1 2.88-1.18 4.8 4.8 0 0 1 2.67 1.64 4.19 4.19 0 0 1 1.45 2.59 3.68 3.68 0 0 1-1.42 2.5 4.11 4.11 0 0 1-2.59 1.18 4 4 0 0 1-2.61-1.09zm-39.8 1.46a4.31 4.31 0 0 1-.6-3.1 4.45 4.45 0 0 1 1-2.74 3.51 3.51 0 0 1 2.6-.92 4.75 4.75 0 0 1 2.75 1 3.73 3.73 0 0 1 1.67 2.56 3.93 3.93 0 0 1-1.49 2.8 5.13 5.13 0 0 1-3 1.44 3.54 3.54 0 0 1-2.93-1.04zm19.85-1.06a4.17 4.17 0 0 1-1-3 4.54 4.54 0 0 1 1.09-3 4.31 4.31 0 0 1 6-.07 3.92 3.92 0 0 1 1 3 4.37 4.37 0 0 1-1.36 2.73 4.56 4.56 0 0 1-2.79 1.29 3.77 3.77 0 0 1-2.94-.95zM81.6 52.07a4.22 4.22 0 0 1-1.06-2.89 5 5 0 0 1 1.22-2.87 4.18 4.18 0 0 1 2.71-1.76 3.9 3.9 0 0 1 2.9 1.52 4.82 4.82 0 0 1 1.27 3.09 4.43 4.43 0 0 1-1.2 3.06 3.72 3.72 0 0 1-5.84-.15zm-19.04 1.2a4.26 4.26 0 0 1-1.48-2.64 3.9 3.9 0 0 1 1.09-3 3.67 3.67 0 0 1 2.89-1.18 4.84 4.84 0 0 1 2.67 1.64 4.22 4.22 0 0 1 1.44 2.59 3.67 3.67 0 0 1-1.41 2.5 4.13 4.13 0 0 1-2.6 1.18 4 4 0 0 1-2.6-1.09zm-39.8-2.84a4.31 4.31 0 0 1-.6-3.1 4.45 4.45 0 0 1 1-2.74 3.49 3.49 0 0 1 2.59-.92 4.76 4.76 0 0 1 2.76 1 3.79 3.79 0 0 1 1.67 2.56 4 4 0 0 1-1.49 2.8 5.16 5.16 0 0 1-3 1.44 3.52 3.52 0 0 1-2.93-1.04zm19.85 1.8a4.21 4.21 0 0 1-1-3 4.6 4.6 0 0 1 1.08-3 4.32 4.32 0 0 1 6-.07 4 4 0 0 1 1 3 4.42 4.42 0 0 1-1.34 2.78 4.56 4.56 0 0 1-2.8 1.29 3.78 3.78 0 0 1-2.94-1zm-41.54-.15A4.22 4.22 0 0 1 0 49.18a4.94 4.94 0 0 1 1.22-2.87 4.18 4.18 0 0 1 2.71-1.76 3.9 3.9 0 0 1 2.9 1.52 4.82 4.82 0 0 1 1.27 3.09 4.43 4.43 0 0 1-1.2 3.06 4.07 4.07 0 0 1-3 1.34 4.06 4.06 0 0 1-2.84-1.49zm223.38 22.56a4.2 4.2 0 0 1-1.05-2.9 5 5 0 0 1 1.21-2.86 4.16 4.16 0 0 1 2.71-1.77 3.88 3.88 0 0 1 2.9 1.53 4.86 4.86 0 0 1 1.28 3.08 4.47 4.47 0 0 1-1.21 3.06 3.73 3.73 0 0 1-5.84-.14zm-100.82 1.2a4.27 4.27 0 0 1-1.47-2.64 3.88 3.88 0 0 1 1.09-2.94 3.63 3.63 0 0 1 2.89-1.19 4.84 4.84 0 0 1 2.67 1.64 4.27 4.27 0 0 1 1.44 2.59 3.65 3.65 0 0 1-1.41 2.5 4.15 4.15 0 0 1-2.6 1.19 4 4 0 0 1-2.61-1.15zM163.58 73a4.39 4.39 0 0 1-.59-3.11 4.48 4.48 0 0 1 1-2.74 3.52 3.52 0 0 1 2.59-.91 4.75 4.75 0 0 1 2.76 1 3.84 3.84 0 0 1 1.67 2.57 4 4 0 0 1-1.49 2.8 5.09 5.09 0 0 1-3 1.43 3.55 3.55 0 0 1-2.94-1.04zM182 74.74a4.22 4.22 0 0 1-1-3 4.56 4.56 0 0 1 1.08-3 4.23 4.23 0 0 1 3-1.25 4.15 4.15 0 0 1 3 1.17 4 4 0 0 1 1 3 4.42 4.42 0 0 1-1.34 2.78 4.51 4.51 0 0 1-2.8 1.29 3.78 3.78 0 0 1-2.94-.99zm-119.87-.1a4.26 4.26 0 0 1-1.06-2.9 4.91 4.91 0 0 1 1.22-2.86A4.13 4.13 0 0 1 65 67.1a3.88 3.88 0 0 1 2.9 1.53 4.8 4.8 0 0 1 1.27 3.08A4.41 4.41 0 0 1 68 74.77a3.73 3.73 0 0 1-5.84-.14zm140 1.17a4.22 4.22 0 0 1-1.47-2.64 3.85 3.85 0 0 1 1.09-2.94 3.63 3.63 0 0 1 2.88-1.18 4.66 4.66 0 0 1 2.67 1.64 4.19 4.19 0 0 1 1.45 2.59 3.6 3.6 0 0 1-1.42 2.49 4.07 4.07 0 0 1-2.59 1.23 4 4 0 0 1-2.61-1.19zM82.5 74.42a4.35 4.35 0 0 1-.59-3.11 4.47 4.47 0 0 1 1-2.74 3.6 3.6 0 0 1 2.6-.92 4.81 4.81 0 0 1 2.76 1 3.81 3.81 0 0 1 1.73 2.6 4 4 0 0 1-1.5 2.8 5.12 5.12 0 0 1-3 1.43 3.53 3.53 0 0 1-3-1.06zm19.85-1.07a4.14 4.14 0 0 1-1-3 4.51 4.51 0 0 1 1.08-3 4.32 4.32 0 0 1 6-.08 4 4 0 0 1 1 3 4.58 4.58 0 0 1-4.14 4.07 3.8 3.8 0 0 1-2.94-.99zm41.3 1.25a4.26 4.26 0 0 1-1.06-2.9 5 5 0 0 1 1.22-2.86 4.19 4.19 0 0 1 2.71-1.77 3.92 3.92 0 0 1 2.9 1.53 4.8 4.8 0 0 1 1.27 3.08 4.41 4.41 0 0 1-1.2 3.06 3.71 3.71 0 0 1-5.84-.14zm-100.58-.2a4.27 4.27 0 0 1-1.47-2.64 3.88 3.88 0 0 1 1.09-2.94 3.63 3.63 0 0 1 2.89-1.19 4.78 4.78 0 0 1 2.66 1.64 4.24 4.24 0 0 1 1.45 2.59 3.65 3.65 0 0 1-1.41 2.5 4.15 4.15 0 0 1-2.6 1.19 4 4 0 0 1-2.61-1.15zM3.26 73a4.4 4.4 0 0 1-.59-3.11 4.47 4.47 0 0 1 1-2.74 3.61 3.61 0 0 1 2.6-.92 4.78 4.78 0 0 1 2.76 1 3.81 3.81 0 0 1 1.67 2.57 4 4 0 0 1-1.49 2.8 5.15 5.15 0 0 1-3 1.43A3.55 3.55 0 0 1 3.26 73zm20.34 2.85a4.27 4.27 0 0 1-1.47-2.64 3.88 3.88 0 0 1 1.09-2.94 3.62 3.62 0 0 1 2.89-1.18 4.67 4.67 0 0 1 2.66 1.64 4.19 4.19 0 0 1 1.45 2.59 3.65 3.65 0 0 1-1.41 2.49A4.1 4.1 0 0 1 26.2 77a4 4 0 0 1-2.61-1.15zm218.93-1.4a4.37 4.37 0 0 1-.59-3.1 4.54 4.54 0 0 1 1-2.75 3.56 3.56 0 0 1 2.6-.91 4.84 4.84 0 0 1 2.76 1 3.84 3.84 0 0 1 1.7 2.59 4 4 0 0 1-1.49 2.8 5.09 5.09 0 0 1-3 1.43 3.55 3.55 0 0 1-2.98-1.06z"/></svg>