<svg xmlns="http://www.w3.org/2000/svg" viewBox="0 0 95.42 6" fill="#ebed78" xmlns:v="https://vecta.io/nano"><path d="M3.8 1.2a2.22 2.22 0 0 1 .54 1.48 2.53 2.53 0 0 1-.62 1.46A2.12 2.12 0 0 1 2.33 5a2 2 0 0 1-1.47-.74 2.49 2.49 0 0 1-.65-1.58 2.24 2.24 0 0 1 .61-1.56A2 2 0 0 1 2.34.44a2.05 2.05 0 0 1 1.45.75zm9.67-.6a2.14 2.14 0 0 1 .75 1.34 2 2 0 0 1-.55 1.5A1.88 1.88 0 0 1 12.2 4a2.46 2.46 0 0 1-1.36-.84 2.13 2.13 0 0 1-.73-1.32 1.84 1.84 0 0 1 .72-1.23A2.07 2.07 0 0 1 12.15 0a2 2 0 0 1 1.32.59zm71.3 1.56a2.13 2.13 0 0 1 .54 1.47 2.58 2.58 0 0 1-.62 1.47 2.14 2.14 0 0 1-1.38.9 2 2 0 0 1-1.47-.78 2.47 2.47 0 0 1-.65-1.57 2.31 2.31 0 0 1 .61-1.57 1.89 1.89 0 0 1 3 .08zm9.68-.6a2.16 2.16 0 0 1 .75 1.35 2 2 0 0 1-.55 1.5 1.84 1.84 0 0 1-1.47.6 2.4 2.4 0 0 1-1.35-.84 2.15 2.15 0 0 1-.74-1.32 1.88 1.88 0 0 1 .72-1.27A2.12 2.12 0 0 1 93.13 1a2 2 0 0 1 1.32.55zM33.7 2a2.21 2.21 0 0 1 .3 1.61A2.33 2.33 0 0 1 33.48 5a1.8 1.8 0 0 1-1.32.47 2.38 2.38 0 0 1-1.4-.47 1.91 1.91 0 0 1-.85-1.31 2 2 0 0 1 .76-1.43 2.59 2.59 0 0 1 1.52-.73A1.78 1.78 0 0 1 33.7 2zm-10.08-.88a2.13 2.13 0 0 1 .51 1.54 2.34 2.34 0 0 1-.55 1.54 2.13 2.13 0 0 1-1.51.64 2.09 2.09 0 0 1-1.54-.6A2 2 0 0 1 20 2.71 2.3 2.3 0 0 1 22.12.64a1.91 1.91 0 0 1 1.5.48zm21.1.08a2.17 2.17 0 0 1 .54 1.48 2.46 2.46 0 0 1-.62 1.46 2.08 2.08 0 0 1-1.38.9 2 2 0 0 1-1.47-.77 2.49 2.49 0 0 1-.65-1.58 2.25 2.25 0 0 1 .62-1.56 1.89 1.89 0 0 1 3 .07zm9.68.8a2.19 2.19 0 0 1 .75 1.35 2 2 0 0 1-.56 1.5 1.88 1.88 0 0 1-1.47.61 2.43 2.43 0 0 1-1.35-.84A2.15 2.15 0 0 1 51 3.34a1.92 1.92 0 0 1 .72-1.28 2.1 2.1 0 0 1 1.32-.6 2 2 0 0 1 1.37.54zm20.24-.7a2.23 2.23 0 0 1 .3 1.59 2.26 2.26 0 0 1-.53 1.39 1.79 1.79 0 0 1-1.32.47 2.4 2.4 0 0 1-1.4-.52 2 2 0 0 1-.85-1.31 2 2 0 0 1 .76-1.43 2.65 2.65 0 0 1 1.53-.73 1.79 1.79 0 0 1 1.51.54zm-10.1.55a2.13 2.13 0 0 1 .51 1.54 2.29 2.29 0 0 1-.55 1.54 2.13 2.13 0 0 1-1.51.64A2.09 2.09 0 0 1 61.46 5 2 2 0 0 1 61 3.44 2.27 2.27 0 0 1 61.63 2a2.35 2.35 0 0 1 1.42-.66 2 2 0 0 1 1.5.51z"/></svg>