<svg xmlns="http://www.w3.org/2000/svg" viewBox="0 0 72.92 80" xmlns:v="https://vecta.io/nano"><path d="M18.32 21.86a9.17 9.17 0 0 1 1.88.2 13.39 13.39 0 0 1 3.18-6.79A6.84 6.84 0 1 0 14 23a8.9 8.9 0 0 1 4.32-1.14z" fill="#fdd210"/><path d="M49.3 27.77a9 9 0 0 0-3.51.7 1.06 1.06 0 0 1-1.09-.18 1 1 0 0 1-.31-1.06 11.56 11.56 0 0 0 .44-3.11 11.36 11.36 0 0 0-22.7-.65 1 1 0 0 1-1.4.92 6.78 6.78 0 0 0-2.42-.45 6.85 6.85 0 0 0-6.26 9.63 1.05 1.05 0 0 1-.15 1.09 1 1 0 0 1-1.05.34 5.45 5.45 0 0 0-1.36-.17A5.58 5.58 0 0 0 9.5 46h39.8a9.11 9.11 0 0 0 0-18.22z" fill="#e9eced"/><path d="M49.3 25.68a11.2 11.2 0 0 0-2.52.29 12.79 12.79 0 0 0 .13-1.85 13.42 13.42 0 0 0-21.83-10.48 8.93 8.93 0 1 0-12.95 10.72 8.92 8.92 0 0 0-2.75 6.44 8.51 8.51 0 0 0 .22 1.95 7.66 7.66 0 1 0-.11 15.32h39.8a11.2 11.2 0 1 0 0-22.39zm-39.45-9a6.84 6.84 0 0 1 13.52-1.44 13.39 13.39 0 0 0-3.18 6.79 9.17 9.17 0 0 0-1.88-.2A8.9 8.9 0 0 0 14 23a6.84 6.84 0 0 1-4.14-6.29zM49.3 46H9.5a5.58 5.58 0 0 1 0-11.16 5.45 5.45 0 0 1 1.36.17 1 1 0 0 0 1.05-.34 1.05 1.05 0 0 0 .15-1.09 6.84 6.84 0 0 1 8.68-9.18 1 1 0 0 0 1.4-.92 11.36 11.36 0 0 1 22.7.65 11.56 11.56 0 0 1-.44 3.11 1 1 0 0 0 .31 1.06 1.06 1.06 0 0 0 1.09.18 9 9 0 0 1 3.51-.7 9.11 9.11 0 0 1 0 18.22zM16.7 5.76a1 1 0 0 0 1-1V1a1.04 1.04 0 1 0-2.08 0v3.72a1 1 0 0 0 1.08 1.04zM5.76 16.7a1 1 0 0 0-1-1H1a1.04 1.04 0 1 0 0 2.08h3.72a1 1 0 0 0 1.04-1.08zM7.5 9A1.064 1.064 0 0 0 9 7.49L6.4 4.9a1.057 1.057 0 0 0-1.51 1.48z"/><path d="M25.2 9.27a1 1 0 0 0 .73-.3l2.6-2.6a1.043 1.043 0 0 0-1.47-1.48l-2.6 2.6a1 1 0 0 0 .74 1.78zM4.9 28.52a1 1 0 0 0 1.48 0L9 25.92a1.043 1.043 0 0 0-1.48-1.47l-2.6 2.6a1.05 1.05 0 0 0-.03 1.47z"/><path d="M39.13 66c2.17-2.16 2.4-5.75 2.4-7.4h-.14c-1.47 0-5.12.23-7.28 2.4s-2.4 5.75-2.4 7.42h.13c1.47-.03 5.15-.27 7.28-2.4zM20 42.85h-.13c0 1.66.23 5.26 2.4 7.42s6 2.43 7.42 2.4c0-1.66-.24-5.26-2.4-7.4s-5.86-2.4-7.3-2.4z" fill="#b2d12f"/><path d="M41.53 42.85h-.14c-1.47 0-5.12.24-7.28 2.4s-2.4 5.75-2.4 7.4c1.42 0 5.2-.17 7.4-2.4s2.4-5.76 2.4-7.42z" fill="#70bb3b"/><path d="M30.68 26.5c-1.2 1.16-3.55 3.88-3.55 6.93s2.36 5.76 3.55 6.93c1.18-1.17 3.55-3.88 3.55-6.93s-2.37-5.77-3.55-6.93z" fill="#b2d12f"/><path d="M19.83 58.56c0 1.66.23 5.26 2.4 7.4s6 2.43 7.42 2.4c0-1.67-.24-5.26-2.4-7.42s-6-2.43-7.42-2.4z" fill="#70bb3b"/><path d="M61.16 52.66c1.47 0 5.13-.23 7.28-2.4s2.4-5.76 2.4-7.42h-.13c-1.47 0-5.12.24-7.28 2.4S61 51 61 52.66z" fill="#b2d12f"/><path d="M60 26.48c-1.2 1.17-3.56 3.88-3.56 6.94s2.36 5.76 3.56 6.93c1.18-1.17 3.55-3.88 3.55-6.93s-2.38-5.77-3.55-6.94zM68.44 66c2.17-2.16 2.4-5.75 2.4-7.4h-.13c-1.47 0-5.12.23-7.28 2.4S61 66.7 61 68.37h.13c1.5 0 5.16-.24 7.3-2.37z" fill="#70bb3b"/><path d="M49.27 58.56h-.13c0 1.66.23 5.26 2.4 7.4s6 2.43 7.4 2.4c0-1.67-.23-5.26-2.4-7.42s-5.8-2.4-7.28-2.4zm0-15.7h-.13c0 1.66.23 5.26 2.4 7.42s6 2.43 7.4 2.4c0-1.66-.23-5.26-2.4-7.4s-5.8-2.4-7.28-2.4z" fill="#b2d12f"/><path d="M31.85 54.74c2.15 0 6.15-.4 8.76-3 3.56-3.57 3-9.73 3-10a1 1 0 0 0-.93-.93h-1.24c-2.14 0-6.14.4-8.75 3a8 8 0 0 0-.92 1.12v-2.7c1.17-1.06 4.6-4.53 4.6-8.8 0-5.05-4.77-9-5-9.15a1 1 0 0 0-1.31 0c-.2.16-5 4.1-5 9.15 0 4.28 3.42 7.75 4.6 8.8v2.66a8.83 8.83 0 0 0-.92-1.12c-2.6-2.6-6.6-3-8.76-3h-1.23a1 1 0 0 0-.93.93c0 .26-.62 6.42 2.95 10 2.6 2.6 6.6 3 8.75 3h.14v5.9a8.83 8.83 0 0 0-.92-1.12c-2.6-2.6-6.6-3-8.76-3-.76 0-1.23.05-1.23.05a1 1 0 0 0-.93.93c0 .26-.62 6.42 2.95 10 2.6 2.6 6.6 3 8.75 3h.14V79a1.04 1.04 0 0 0 2.08 0v-8.55h.13c2.15 0 6.15-.4 8.76-3 3.56-3.57 3-9.73 3-10a1 1 0 0 0-.93-.93s-.47-.05-1.24-.05c-2.14 0-6.14.4-8.75 3a8 8 0 0 0-.92 1.12v-5.85zm2.26-9.5c2.16-2.16 5.8-2.4 7.28-2.4h.14c0 1.66-.23 5.25-2.4 7.42s-6 2.43-7.4 2.4c-.02-1.66.22-5.25 2.4-7.4zm-11.9 5c-2.16-2.16-2.4-5.76-2.4-7.42h.2c1.47 0 5.13.24 7.3 2.4s2.4 5.75 2.4 7.4c-1.47.06-5.23-.15-7.46-2.37zm0 15.7c-2.16-2.15-2.4-5.75-2.4-7.4 1.43 0 5.2.17 7.42 2.4s2.4 5.75 2.4 7.42c-1.43.05-5.2-.15-7.42-2.35zm11.9-5c2.16-2.16 5.8-2.4 7.28-2.4h.14c0 1.66-.23 5.25-2.4 7.4s-5.8 2.4-7.28 2.4h-.13C31.7 66.7 32 63.1 34.1 61zm-3.43-20.6c-1.2-1.17-3.55-3.88-3.55-6.93s2.36-5.77 3.55-6.93c1.18 1.16 3.55 3.88 3.55 6.93s-2.37 5.76-3.55 6.93zm30.48 14.4c2.15 0 6.14-.4 8.76-3 3.56-3.57 3-9.73 3-10a1 1 0 0 0-.93-.93h-1.24c-2.14 0-6.14.4-8.75 3a8 8 0 0 0-1 1.08v-2.66c1.16-1.06 4.6-4.53 4.6-8.8 0-5.05-4.77-9-5-9.15a1 1 0 0 0-1.31 0c-.2.16-5 4.1-5 9.15 0 4.28 3.43 7.75 4.6 8.8v2.66a9.77 9.77 0 0 0-.88-1.12c-2.62-2.6-6.6-3-8.76-3H48a1 1 0 0 0-.93.93c0 .26-.62 6.42 3 10 2.6 2.6 6.6 3 8.75 3H59v5.9a9.77 9.77 0 0 0-1-1.12c-2.62-2.6-6.6-3-8.76-3-.76 0-1.23.05-1.23.05a1 1 0 0 0-.93.93c0 .26-.62 6.42 3 10 2.6 2.6 6.6 3 8.75 3H59V79a1 1 0 0 0 2 0v-8.55h.13c2.15 0 6.14-.4 8.76-3 3.56-3.57 3-9.73 3-10a1 1 0 0 0-.93-.93s-.48-.05-1.24-.05c-2.14 0-6.14.4-8.75 3A8 8 0 0 0 61 60.6v-5.86zm-9.63-4.47c-2.16-2.16-2.4-5.76-2.4-7.42h.13c1.47 0 5.13.24 7.28 2.4s2.45 5.75 2.4 7.4c-1.42.04-5.18-.17-7.4-2.4zm0 15.7c-2.16-2.15-2.4-5.75-2.4-7.4h.13c1.47 0 5.13.23 7.28 2.4s2.45 5.75 2.4 7.42c-1.42.03-5.18-.17-7.4-2.37zm11.9-5c2.16-2.16 5.8-2.4 7.28-2.4h.13c0 1.66-.22 5.25-2.4 7.4s-5.8 2.4-7.28 2.4H61c0-1.7.26-5.28 2.42-7.4zm0-15.7c2.16-2.16 5.8-2.4 7.28-2.4h.13c0 1.66-.22 5.25-2.4 7.42s-5.8 2.4-7.28 2.4H61c0-1.68.25-5.27 2.42-7.43zM60 40.35c-1.2-1.17-3.56-3.88-3.56-6.93s2.36-5.77 3.56-6.94c1.18 1.17 3.55 3.87 3.55 6.94s-2.38 5.76-3.55 6.93z"/></svg>