<svg xmlns="http://www.w3.org/2000/svg" viewBox="0 0 69.14 66.98" xmlns:v="https://vecta.io/nano"><path d="M49.07 2.23h-.33c-4.26.23-8.3 4.42-11.7 8.48a56 56 0 0 0-8.39 13.91A40.82 40.82 0 0 0 25 42.06c.2 6.5 2.5 12.57 6.3 16.7a19 19 0 0 0 2.52 2.31 19.77 19.77 0 0 0 11.12 3.88 19.24 19.24 0 0 0 9.72-2.21C61.06 59.3 65.6 52.16 66.8 43.6c1.38-9.84-1.24-21.6-7-31.46C57.6 8.42 54 2.23 49.07 2.23zm14 32.4A31.36 31.36 0 0 1 61 49.91c-2.27 5.18-6.48 9.14-11.25 10.58a15.24 15.24 0 0 1-10.89-.8 18.09 18.09 0 0 1-9.13-11.62 30.31 30.31 0 0 1 .12-14.72 48 48 0 0 1 10.3-20.48c1.14-1.35 2.4-2.58 3.6-3.78l.3-.3a6.39 6.39 0 0 1 5.16-2.21h0c2.34.2 3.65 2 4.6 3.34A49.43 49.43 0 0 1 57.12 15a49.9 49.9 0 0 1 4.49 11.13 48.87 48.87 0 0 1 1.5 8.51z" fill="#4e892f"/><path d="M61.5 11.15C59 7 54.93-.12 48.63.26c-5 .28-9.45 4.8-13.12 9.18a58.23 58.23 0 0 0-8.7 14.41A43 43 0 0 0 23 42.13a27.74 27.74 0 0 0 6.84 18 20.29 20.29 0 0 0 2.77 2.55 21.71 21.71 0 0 0 12.25 4.28h.77a21.09 21.09 0 0 0 10-2.46c7-3.72 11.88-11.42 13.17-20.6 1.4-10.3-1.32-22.53-7.3-32.76zm5.3 32.46c-1.2 8.55-5.73 15.7-12.13 19.12a19.24 19.24 0 0 1-9.72 2.21 19.77 19.77 0 0 1-11.12-3.88 19 19 0 0 1-2.52-2.31c-3.8-4.12-6.1-10.2-6.3-16.7a40.82 40.82 0 0 1 3.64-17.43A56 56 0 0 1 37 10.72c3.4-4.06 7.45-8.25 11.7-8.48h.33c4.92 0 8.54 6.2 10.72 9.92 5.8 9.84 8.4 21.6 7.03 31.45z"/><path d="M55.38 15.94a47 47 0 0 0-3.09-4.86c-1-1.4-1.85-2.4-3.2-2.54h-.35a4.54 4.54 0 0 0-3.24 1.67l-.32.3-3.5 3.65a46.32 46.32 0 0 0-9.88 19.64 28.5 28.5 0 0 0-.14 13.76 16.08 16.08 0 0 0 8.08 10.34 13.25 13.25 0 0 0 9.46.69c4.22-1.27 8-4.82 10-9.48a29.4 29.4 0 0 0 1.91-14.31 46 46 0 0 0-1.44-8.17 47.87 47.87 0 0 0-4.31-10.69z" fill="#b2d12f"/><path d="M53.9 9.9c-1-1.32-2.27-3.13-4.6-3.34h0a6.39 6.39 0 0 0-5.16 2.21l-.3.3-3.6 3.78a48 48 0 0 0-10.3 20.48 30.31 30.31 0 0 0-.12 14.72 18.09 18.09 0 0 0 9.12 11.62 15.24 15.24 0 0 0 10.89.8c4.77-1.44 9-5.4 11.25-10.58a31.36 31.36 0 0 0 2.07-15.27 48.87 48.87 0 0 0-1.5-8.53A49.9 49.9 0 0 0 57.12 15a49.43 49.43 0 0 0-3.23-5.09zm5.33 39.2c-2 4.66-5.78 8.2-10 9.48a13.25 13.25 0 0 1-9.46-.69 16.08 16.08 0 0 1-8.08-10.35 28.5 28.5 0 0 1 .14-13.76 46.32 46.32 0 0 1 9.88-19.64c1.1-1.27 2.26-2.43 3.5-3.65l.32-.3a4.54 4.54 0 0 1 3.24-1.67h.35c1.34.13 2.17 1.13 3.2 2.54a47 47 0 0 1 3.09 4.86 47.87 47.87 0 0 1 4.31 10.69 46 46 0 0 1 1.44 8.17 29.4 29.4 0 0 1-1.91 14.32z"/><path d="M1.98 1.98h28.1v2.2H1.98z" fill="#e9eced"/><path d="M6.32 56.58h19.44c.06-29.8 3.1-46 4.07-50.42H2.24c.97 4.4 4 20.63 4.08 50.42z" fill="#b2d12f"/><path d="M6.3 65h19.44l.01-6.44H6.32L6.3 65z" fill="#4e892f"/><path d="M31.1 0H1a1 1 0 0 0-1 1v4.17a.5.5 0 0 0 0 .13.57.57 0 0 0 0 .13c.05.16 4.3 16.5 4.3 52.12h0v8.42a1 1 0 0 0 1 1h21.42a1 1 0 0 0 1-1v-8.42c0-35.65 4.26-52 4.3-52.14a.29.29 0 0 0 0-.13.5.5 0 0 0 0-.13V1a1 1 0 0 0-.94-1zm-5.35 65H6.3v-6.44h19.45zm0-8.42H6.32c-.07-29.8-3.1-46-4.08-50.42h27.6c-.96 4.4-4 20.63-4.07 50.42zm4.33-52.4H2V2h28.1z"/><path d="M50.88 30.92l-.13-1.1c-.03-.35 0-.5 0-.73a4.91 4.91 0 0 0-.2-1.5 1.41 1.41 0 0 0-.91-.82h-.13l-.5-.15c-.64-.06-1.08.37-1.8 1.12l-.52.53-.3.28-.5.42a8.05 8.05 0 0 0-2.79 3.67 3.87 3.87 0 0 0 2.25 5.2 3.85 3.85 0 0 0 5.14-2.36 8 8 0 0 0 .41-4.55zm-1.54 4A2.71 2.71 0 0 1 48 36.56a2.41 2.41 0 0 1-1.17.19 3.9 3.9 0 0 1-.94-.23 2.67 2.67 0 0 1-1.59-1.38 2.75 2.75 0 0 1 .05-2.14 5.85 5.85 0 0 1 1.43-2.1 2.2 2.2 0 0 1 3.9 1.49 5.65 5.65 0 0 1-.34 2.55z" fill="#b2d12f"/><path d="M47.82 31.43a.67.67 0 0 0-.19-.05 1.47 1.47 0 0 0-1 .46 4.3 4.3 0 0 0-1.11 1.63 1.56 1.56 0 0 0-.09 1.18 1.5 1.5 0 0 0 .91.71 1.45 1.45 0 0 0 1.14.07h0a1.54 1.54 0 0 0 .73-.93 4.14 4.14 0 0 0 .26-2 1.26 1.26 0 0 0-.65-1.07z" fill="#fdd210"/><path d="M45.82 27.65l.15-.14.5-.5a7.28 7.28 0 0 1 1.13-1 3.51 3.51 0 0 0-1.07 0 5 5 0 0 0-1.94 1 4.25 4.25 0 0 0-.44.36h.15z" fill="#70bb3b"/><path d="M48.27 30.27a2.42 2.42 0 0 0-2.49.65A5.85 5.85 0 0 0 44.35 33a2.75 2.75 0 0 0-.07 2.12 2.67 2.67 0 0 0 1.59 1.38 3.9 3.9 0 0 0 .94.23 2.41 2.41 0 0 0 1.19-.17 2.71 2.71 0 0 0 1.36-1.62 5.65 5.65 0 0 0 .34-2.53 2.41 2.41 0 0 0-1.43-2.14zm-.08 4.23a1.54 1.54 0 0 1-.73.93h0a1.45 1.45 0 0 1-1.14-.07 1.5 1.5 0 0 1-.91-.71 1.56 1.56 0 0 1 .09-1.18 4.3 4.3 0 0 1 1.11-1.63 1.47 1.47 0 0 1 1-.46.67.67 0 0 1 .19.05 1.26 1.26 0 0 1 .63 1.12 4.14 4.14 0 0 1-.24 1.95zm4-3.8c0-.35-.1-.67-.1-1v-.72a5.75 5.75 0 0 0-.28-1.91 2.58 2.58 0 0 0-1-1.24.5.5 0 0 1 .11-.1 2.24 2.24 0 0 1 .52-.26l.34-.16a.24.24 0 0 0 .15-.16.22.22 0 0 0 0-.21l-.3-.7a.28.28 0 0 0-.37-.14l-.28.13a4.06 4.06 0 0 0-.83.43 2.21 2.21 0 0 0-.58.66h-.17l-.37-.1a6.2 6.2 0 0 0-2.66-.23 5.65 5.65 0 0 0-2.4 1.23l-.8.67-.23.22-.1.08a.68.68 0 0 0-.15.68.67.67 0 0 0 .53.44h.07l1.13.16a9.06 9.06 0 0 0-2.54 3.66 5.41 5.41 0 0 0 .05 4.2 5.29 5.29 0 0 0 2.95 2.71 5.51 5.51 0 0 0 1.51.35 5.07 5.07 0 0 0 2.5-.39 5.39 5.39 0 0 0 2.85-3.08 9.77 9.77 0 0 0 .45-5.23zm-9.1-3.34zm5.3 10.45a4 4 0 0 1-3 0 3.87 3.87 0 0 1-2.25-5.2A8.05 8.05 0 0 1 45.89 29l.5-.42.3-.28.52-.53c.73-.75 1.17-1.18 1.8-1.12h0l.45.1h.13a1.41 1.41 0 0 1 .91.82 4.91 4.91 0 0 1 .2 1.5v.73c0 .25.07.7.13 1.1a8 8 0 0 1-.39 4.55 4 4 0 0 1-2.09 2.34zM44.6 27.05a5 5 0 0 1 1.94-1 3.51 3.51 0 0 1 1.07 0 7.28 7.28 0 0 0-1.13 1l-.5.5-.15.14-1.53-.22h-.15a4.25 4.25 0 0 1 .44-.42z"/><path d="M19.4 21.66l-.23-1.1-.1-.72a4.77 4.77 0 0 0-.33-1.49 1.41 1.41 0 0 0-1-.73h-.14l-.45-.07c-.64 0-1.05.46-1.7 1.28l-.46.57-.3.3-.45.47a8.09 8.09 0 0 0-2.44 3.9 3.87 3.87 0 0 0 2.71 5 3.84 3.84 0 0 0 4.91-2.82 8 8 0 0 0-.02-4.61zm-1.16 4.14A2.73 2.73 0 0 1 17 27.54a2.17 2.17 0 0 1-1.14.29 3.78 3.78 0 0 1-1-.14 2.66 2.66 0 0 1-1.71-1.23 2.73 2.73 0 0 1-.12-2.11 5.69 5.69 0 0 1 1.24-2.23 2.37 2.37 0 0 1 2.41-.86 2.4 2.4 0 0 1 1.61 2 5.91 5.91 0 0 1-.04 2.54z" fill="#b2d12f"/><path d="M16.42 22.45h-.2a1.46 1.46 0 0 0-1 .55 4.28 4.28 0 0 0-1 1.71 1.58 1.58 0 0 0 0 1.19 1.48 1.48 0 0 0 1 .63 1.48 1.48 0 0 0 1.15 0h0a1.63 1.63 0 0 0 .64-1 4.36 4.36 0 0 0 .09-2c-.04-.44-.23-.96-.68-1.08z" fill="#fdd210"/><path d="M14.08 18.86l.13-.15.45-.54a7.18 7.18 0 0 1 1-1.11 3.26 3.26 0 0 0-1.06.12 5 5 0 0 0-1.85 1.2l-.4.4h.15z" fill="#70bb3b"/><path d="M16.75 21.26a2.37 2.37 0 0 0-2.41.86 5.69 5.69 0 0 0-1.24 2.23 2.73 2.73 0 0 0 .12 2.11 2.66 2.66 0 0 0 1.71 1.23 3.78 3.78 0 0 0 1 .14 2.17 2.17 0 0 0 1.07-.29 2.73 2.73 0 0 0 1.22-1.74 5.91 5.91 0 0 0 .11-2.54 2.4 2.4 0 0 0-1.58-2zm.3 4.2a1.63 1.63 0 0 1-.64 1h0a1.48 1.48 0 0 1-1.15 0 1.48 1.48 0 0 1-1-.63 1.58 1.58 0 0 1 0-1.19 4.28 4.28 0 0 1 1-1.71 1.46 1.46 0 0 1 1-.55h.2c.45.12.64.64.73 1.06a4.36 4.36 0 0 1-.14 2.02zm-5.73-6.63h0z"/><path d="M20.7 21.32l-.2-1-.1-.7a6 6 0 0 0-.46-1.88 2.54 2.54 0 0 0-1.13-1.14.57.57 0 0 1 .1-.11 2.2 2.2 0 0 1 .5-.31l.33-.2a.28.28 0 0 0 .13-.17.26.26 0 0 0 0-.21l-.4-.6a.29.29 0 0 0-.39-.1l-.26.15a4.43 4.43 0 0 0-.79.5 2.09 2.09 0 0 0-.51.71h-.18l-.33-.1a6 6 0 0 0-2.61 0 5.74 5.74 0 0 0-2.29 1.44l-.72.74-.2.24-.08.1a.67.67 0 0 0-.09.69.65.65 0 0 0 .57.39h.07l1.14.06a9.09 9.09 0 0 0-2.2 3.88 5.35 5.35 0 0 0 .42 4.18 5.29 5.29 0 0 0 3.19 2.43 5.44 5.44 0 0 0 1.53.22 5.11 5.11 0 0 0 2.46-.62 5.34 5.34 0 0 0 2.55-3.33 9.81 9.81 0 0 0-.04-5.26zm-9.37-2.5zm6.2 9.92a4 4 0 0 1-3 .29 3.87 3.87 0 0 1-2.71-5 8.09 8.09 0 0 1 2.44-3.9l.45-.47.3-.3.46-.57c.66-.82 1.07-1.28 1.7-1.28h0l.45.07h.14a1.41 1.41 0 0 1 1 .73 4.77 4.77 0 0 1 .33 1.49c0 .23.06.48.1.72l.23 1.1a8 8 0 0 1 0 4.56 4 4 0 0 1-1.89 2.58zm-4.75-10.37a5 5 0 0 1 1.85-1.2 3.26 3.26 0 0 1 1.06-.12 7.18 7.18 0 0 0-1 1.11l-.45.54-.13.15-1.55-.08h-.15z"/></svg>