<svg xmlns="http://www.w3.org/2000/svg" viewBox="0 0 58 58" xmlns:v="https://vecta.io/nano"><path d="M29 0a29 29 0 0 0-.88 58l.05-2.74v-.8l.08-4.1q-.45 0-.87-.12a8.77 8.77 0 0 1-6.32-4.65c-.12-.24-.22-.5-.32-.74a7.64 7.64 0 0 1-.23-.67 9.93 9.93 0 0 1-.46-2.72 11 11 0 0 1 1.42.14 8.91 8.91 0 0 1 1.95.54l.6.26a9.6 9.6 0 0 1 1.12.65A8.7 8.7 0 0 1 28 46.32h0a6.9 6.9 0 0 1 .32.67h0v-.65l.07-3.48v-.15a10.59 10.59 0 0 1-1.73-.3l-.8-.26A8.63 8.63 0 0 1 22 39.33l3.63-3.62.24.2a8 8 0 0 1 1.36 1.43l.38.55a9 9 0 0 1 .63 1.19l.25.64.1-4.92a10.1 10.1 0 0 1-1.76-.28l8.07-8.07a10 10 0 0 1 3.09-.57 9.85 9.85 0 0 1-.7 3.44 9.47 9.47 0 0 1-.52 1.06l-.44.68a7.72 7.72 0 0 1-.56.72 8.57 8.57 0 0 1-2.9 2.17 7.52 7.52 0 0 1-.78.32 10.19 10.19 0 0 1-2.58.53l.1 4.92a8.73 8.73 0 0 1 1.67-2.89l.46-.48A8.82 8.82 0 0 1 33 35.27a7.14 7.14 0 0 1 .81-.47 9.62 9.62 0 0 1 4.1-1 10 10 0 0 1-.84 3.75l-.36.7a9.9 9.9 0 0 1-.56.87l-.22.3a8.69 8.69 0 0 1-1 1.08 9 9 0 0 1-1.31 1 9.11 9.11 0 0 1-2 .88l-.44.12a10.9 10.9 0 0 1-1.55.26h0v.15l.06 3.48v.6a5.46 5.46 0 0 1 .27-.6 8.65 8.65 0 0 1 2.88-3.4 6.26 6.26 0 0 1 .55-.34 7.59 7.59 0 0 1 1-.49 7.87 7.87 0 0 1 .81-.3 10.21 10.21 0 0 1 2.75-.46 9.93 9.93 0 0 1-.46 2.72h0l-.23.67c-.08.22-.2.5-.32.74a8.83 8.83 0 0 1-7.19 4.77l.06 3.23v1.82l.07 2.64A29 29 0 0 0 29 0zm-.7 10.85A10.46 10.46 0 0 1 29 10h0a10.57 10.57 0 0 1 1.13 1.43l.1.18A10.9 10.9 0 0 1 31 13a9.15 9.15 0 0 1 .5 1.59c.05.24.08.48.1.72a7 7 0 0 1 .07.91 8.09 8.09 0 0 1-.13 1.63 8.56 8.56 0 0 1-.44 1.61A9.16 9.16 0 0 1 30.3 21a10.2 10.2 0 0 1-1.07 1.45l.05 2.6a9.47 9.47 0 0 1 .63-1.79 9.91 9.91 0 0 1 .68-1.19l.5-.65c.17-.2.3-.34.46-.5a7.61 7.61 0 0 1 .72-.67l.65-.5c.22-.16.4-.25.62-.37a9.13 9.13 0 0 1 1.35-.61 10.75 10.75 0 0 1 1.46-.39L27.7 27a6.83 6.83 0 0 1-.81-.16c-.1 0-.22-.06-.33-.1l-.45-.13-.4-.16-.33-.12c-.16-.07-.3-.15-.46-.23l-.24-.1-.5-.3-.16-.1-.52-.38-.1-.07c-.18-.14-.36-.3-.53-.46h0a6.63 6.63 0 0 1-.52-.54h0a9.23 9.23 0 0 1-2.24-5.83v-.1q.4 0 .8.06a9 9 0 0 1 5.84 2.89 8.69 8.69 0 0 1 .81 1.08 8.93 8.93 0 0 1 .82 1.6c.06.14.1.3.15.43s.17.5.23.77h0v-2.6A10.2 10.2 0 0 1 27.7 21l-.42-.76c-.13-.25-.2-.42-.28-.64a1.55 1.55 0 0 1-.08-.23l-.15-.37c0-.1-.05-.2-.08-.3l-.1-.35a3.4 3.4 0 0 1-.07-.34c0-.1 0-.2-.05-.3s0-.25-.05-.37v-1.4a1 1 0 0 1 0-.17v-.5c0-.16.06-.4.1-.6s0-.18.06-.28a9.35 9.35 0 0 1 1.18-2.78c.23-.26.35-.52.54-.77zM20.76 29.3a9.85 9.85 0 0 1-.7-3.44 10 10 0 0 1 3.61.77A8.6 8.6 0 0 1 26 28.12c.1.1.2.2.3.3l-3.7 3.72a8.66 8.66 0 0 1-1.84-2.82zm.12 4.54l-.76.76c0-.26-.05-.54-.06-.8.28 0 .55.03.82.05zm17.62 9.7a10.65 10.65 0 0 0 .26-2.07v-.87h-.87a12.31 12.31 0 0 0-1.63.18A13.85 13.85 0 0 0 40 20.47L21.02 39.45l-.52.55a14.38 14.38 0 0 0 1.21.83 12.31 12.31 0 0 0-1.63-.18h-.87v.87a10.65 10.65 0 0 0 .26 2.07 17.36 17.36 0 0 1 7.24-31.78 9.72 9.72 0 0 0-1.13 3.72 14.08 14.08 0 0 0-4.46 2c-.35 0-.7-.08-1.07-.1h-.87v.87q0 .4.06.78A13.84 13.84 0 0 0 18 37.52L38.15 17.4h-.23c-.37 0-.73.05-1.08.1a14 14 0 0 0-4.45-2 9.72 9.72 0 0 0-1.13-3.72 17.36 17.36 0 0 1 7.24 31.77z" fill="#3b672e"/></svg>